<?xml version="1.0"?>
<Project_Data Version="8.00">
<Project_Settings>
<ProfileName>MP4 only (up to 1080p)</ProfileName>
<ProjectWidth>1280</ProjectWidth>
<ProjectHeight>720</ProjectHeight>
<IsCustomProject>1</IsCustomProject>
<SavedProjectSettings>1</SavedProjectSettings>
<LastFlashTemplate>-1</LastFlashTemplate>
</Project_Settings>


<AutoSaveFile>C:\Users\laj30\AppData\Local\TechSmith\Camtasia Studio\8.0\Auto-Saves\Materialist Teaser Camtasia6dbae97.autosave.camproj</AutoSaveFile>

<ProjectID>D18A2AEE-A773-429D-BC16-BCE112BE9992</ProjectID>

<PowerPointProject>0</PowerPointProject>

<PowerPointFilename></PowerPointFilename>


<Project_Notes>
</Project_Notes>

<Project_MetaData>
<Project_MetaData_Object>
<FieldArrayKey>8</FieldArrayKey>
<Value>Angular Momentor Teaser</Value>
</Project_MetaData_Object>
<Project_MetaData_Object>
<FieldArrayKey>13</FieldArrayKey>
<Value>2015-09-09 05:07:00 PM</Value>
</Project_MetaData_Object>
<Project_MetaData_Object>
<FieldArrayKey>16</FieldArrayKey>
<Value>ENU</Value>
</Project_MetaData_Object>
</Project_MetaData>

<CSMLData>
<GoProject id="1" version="3.0" >
 <Project id="2" editRate="30/1" version="3.0" >
  <Author></Author>
  <Comment></Comment>
  <System></System>
  <SourceBin id="3"  >
    <Source id="4" src="C:\Users\laj30\Documents\Unity Projects\Materialist\Admin\Teaser Footage\Materialist v2 Win 2015-09-11 17-20-32-78.avi" lastMod="20150911T162056" rect="(0,0,1920,1200)" >
      <SourceTrack range="(0,235000000)" type="0" editRate="10000000/1" trackRect="(0,0,1920,1200)" sampleRate="5000000/83333" bitDepth="24" numChannels="0" filename="" metaData="" />
      <SourceTrack range="(0,235000000)" type="2" editRate="10000000/1" trackRect="(0,0,0,0)" sampleRate="44100/1" bitDepth="16" numChannels="2" filename="" metaData="" />
    </Source>
    <Source id="5" src="C:\Users\laj30\Documents\Unity Projects\Materialist\Admin\Teaser Footage\Materialist v2 Win 2015-09-11 17-22-01-61.avi" lastMod="20150911T162214" rect="(0,0,1920,1200)" >
      <SourceTrack range="(0,129000000)" type="0" editRate="10000000/1" trackRect="(0,0,1920,1200)" sampleRate="5000000/83333" bitDepth="24" numChannels="0" filename="" metaData="" />
      <SourceTrack range="(0,129000000)" type="2" editRate="10000000/1" trackRect="(0,0,0,0)" sampleRate="44100/1" bitDepth="16" numChannels="2" filename="" metaData="" />
    </Source>
    <Source id="6" src="C:\Users\laj30\Documents\Unity Projects\Materialist\Admin\Teaser Footage\Materialist v2 Win 2015-09-11 17-22-22-15.avi" lastMod="20150911T162252" rect="(0,0,1920,1200)" >
      <SourceTrack range="(0,299666667)" type="0" editRate="10000000/1" trackRect="(0,0,1920,1200)" sampleRate="5000000/83333" bitDepth="24" numChannels="0" filename="" metaData="" />
      <SourceTrack range="(0,299666667)" type="2" editRate="10000000/1" trackRect="(0,0,0,0)" sampleRate="44100/1" bitDepth="16" numChannels="2" filename="" metaData="" />
    </Source>
    <Source id="7" src="C:\Users\laj30\Documents\Unity Projects\Materialist\Admin\Teaser Footage\Materialist v2 Win 2015-09-11 17-23-03-36.avi" lastMod="20150911T162315" rect="(0,0,1920,1200)" >
      <SourceTrack range="(0,124666667)" type="0" editRate="10000000/1" trackRect="(0,0,1920,1200)" sampleRate="5000000/83333" bitDepth="24" numChannels="0" filename="" metaData="" />
      <SourceTrack range="(0,124666667)" type="2" editRate="10000000/1" trackRect="(0,0,0,0)" sampleRate="44100/1" bitDepth="16" numChannels="2" filename="" metaData="" />
    </Source>
    <Source id="8" src="C:\Users\laj30\Documents\Unity Projects\Materialist\Admin\Teaser Footage\Materialist v2 Win 2015-09-11 17-24-19-66.avi" lastMod="20150911T162447" rect="(0,0,1920,1200)" >
      <SourceTrack range="(0,273000000)" type="0" editRate="10000000/1" trackRect="(0,0,1920,1200)" sampleRate="5000000/83333" bitDepth="24" numChannels="0" filename="" metaData="" />
      <SourceTrack range="(0,273000000)" type="2" editRate="10000000/1" trackRect="(0,0,0,0)" sampleRate="44100/1" bitDepth="16" numChannels="2" filename="" metaData="" />
    </Source>
    <Source id="9" src="C:\Users\laj30\Documents\Unity Projects\Materialist\Admin\Teaser Footage\Materialist v2 Win 2015-09-11 17-24-53-18.avi" lastMod="20150911T162523" rect="(0,0,1920,1200)" >
      <SourceTrack range="(0,267666667)" type="0" editRate="10000000/1" trackRect="(0,0,1920,1200)" sampleRate="5000000/83333" bitDepth="24" numChannels="0" filename="" metaData="" />
      <SourceTrack range="(0,267666667)" type="2" editRate="10000000/1" trackRect="(0,0,0,0)" sampleRate="44100/1" bitDepth="16" numChannels="2" filename="" metaData="" />
    </Source>
    <Source id="10" src="C:\Users\laj30\Documents\Unity Projects\Materialist\Admin\Teaser Footage\Materialist v2 Win 2015-09-11 17-20-58-48.mp4" lastMod="20150911T164856" rect="(0,0,1152,720)" >
      <SourceTrack range="(0,111333333)" type="0" editRate="10000000/1" trackRect="(0,0,1152,720)" sampleRate="10000000/333333" bitDepth="24" numChannels="0" filename="" metaData="" />
      <SourceTrack range="(0,111333333)" type="2" editRate="10000000/1" trackRect="(0,0,0,0)" sampleRate="44100/1" bitDepth="16" numChannels="2" filename="" metaData="" />
    </Source>
    <Source id="11" src="C:\Users\laj30\Documents\Unity Projects\Materialist\Admin\Teaser Footage\Materialist v2 Win 2015-09-11 17-21-16-15.mp4" lastMod="20150911T165228" rect="(0,0,1152,720)" >
      <SourceTrack range="(0,300333333)" type="0" editRate="10000000/1" trackRect="(0,0,1152,720)" sampleRate="10000000/333333" bitDepth="24" numChannels="0" filename="" metaData="" />
      <SourceTrack range="(0,300333333)" type="2" editRate="10000000/1" trackRect="(0,0,0,0)" sampleRate="44100/1" bitDepth="16" numChannels="2" filename="" metaData="" />
    </Source>
  </SourceBin>
  <Timeline id="12"  >
   <Attributes>
    <Attribute id="13" value="1280" name="width"/>
    <Attribute id="14" value="720" name="height"/>
    <Attribute id="15" value="(0,0,0,255)" name="backgroundColor"/>
   </Attributes>
    <GenericMixer id="16"  name="Unified Mixer">
     <MetaData>
      <entry key="MixerType" val="TimelineMixer"/>
     </MetaData>
     <Tracks>
      <GenericTrack id="17"  >
       <Attributes>
        <Attribute id="18" value="" name="ident"/>
        <Attribute id="19" value="0" name="audioMuted"/>
        <Attribute id="20" value="0" name="videoHidden"/>
       </Attributes>
       <MetaData>
        <entry key="IsLocked" val="False"/>
        <entry key="WinTrackHeight" val="56.704545454545439"/>
       </MetaData>
       <Medias>
       </Medias>
      </GenericTrack>
      <GenericTrack id="21"  >
       <Attributes>
        <Attribute id="22" value="" name="ident"/>
        <Attribute id="23" value="0" name="audioMuted"/>
        <Attribute id="24" value="0" name="videoHidden"/>
       </Attributes>
       <MetaData>
        <entry key="IsLocked" val="False"/>
        <entry key="WinTrackHeight" val="56.704545454545439"/>
       </MetaData>
       <Medias>
        <UnifiedMedia id="25"  >
         <AMFile id="26" start="146" duration="135" scalar="1/1" mediaStart="0/1" mediaDuration="135/1" trackNumber="1" src="4" channelNumber="0,1" >
          <Parameters>
           <InterpolatingParam id="27" interp="linr"  time="0/1" value="1" leadInLength="0/1"  name="volume"/>
           <Parameter id="28"  name="captions"/>
          </Parameters>
          <Attributes>
           <Attribute id="29" value="" name="ident"/>
           <Attribute id="30" value="44100" name="sampleRate"/>
           <Attribute id="31" value="16" name="bitDepth"/>
           <Attribute id="32" value="1" name="gain"/>
           <Attribute id="33" value="0" name="mixToMono"/>
          </Attributes>
         </AMFile>
         <VMFile id="34" start="146" duration="135" scalar="1/1" mediaStart="0/1" mediaDuration="135/1" trackNumber="0" src="4" >
          <Transformer>
           <VectorParam id="35"  name="translation">
            <InterpolatingParam id="36" interp="linr"  time="-9999999/1" value="0" leadInLength="0/1"  />
            <InterpolatingParam id="37" interp="linr"  time="-9999999/1" value="0" leadInLength="0/1"  />
            <InterpolatingParam id="38" interp="linr"  time="-9999999/1" value="0" leadInLength="0/1"  />
           </VectorParam>
           <VectorParam id="39"  name="rotation">
            <InterpolatingParam id="40" interp="linr"  time="-9999999/1" value="0" leadInLength="0/1"  />
            <InterpolatingParam id="41" interp="linr"  time="-9999999/1" value="0" leadInLength="0/1"  />
            <InterpolatingParam id="42" interp="linr"  time="-9999999/1" value="0" leadInLength="0/1"  />
           </VectorParam>
           <VectorParam id="43"  name="shear">
            <InterpolatingParam id="44" interp="linr"  time="-9999999/1" value="0" leadInLength="0/1"  />
            <InterpolatingParam id="45" interp="linr"  time="-9999999/1" value="0" leadInLength="0/1"  />
            <InterpolatingParam id="46" interp="linr"  time="-9999999/1" value="0" leadInLength="0/1"  />
           </VectorParam>
           <VectorParam id="47"  name="scale">
            <InterpolatingParam id="48" interp="linr"  time="-9999999/1" value="0.59999999999999998" leadInLength="0/1"  />
            <InterpolatingParam id="49" interp="linr"  time="-9999999/1" value="0.59999999999999998" leadInLength="0/1"  />
            <InterpolatingParam id="50" interp="linr"  time="-9999999/1" value="1" leadInLength="0/1"  />
           </VectorParam>
           <VectorParam id="51"  name="anchor">
            <InterpolatingParam id="52" interp="linr"  time="0/1" value="0" leadInLength="0/1"  />
            <InterpolatingParam id="53" interp="linr"  time="0/1" value="0" leadInLength="0/1"  />
            <InterpolatingParam id="54" interp="linr"  time="0/1" value="0" leadInLength="0/1"  />
           </VectorParam>
          </Transformer>
          <Parameters>
           <VectorParam id="55"  name="sourceCrop">
            <InterpolatingParam id="56" interp="linr"  time="0/1" value="0" leadInLength="0/1"  />
            <InterpolatingParam id="57" interp="linr"  time="0/1" value="0" leadInLength="0/1"  />
            <InterpolatingParam id="58" interp="linr"  time="0/1" value="0" leadInLength="0/1"  />
            <InterpolatingParam id="59" interp="linr"  time="0/1" value="0" leadInLength="0/1"  />
           </VectorParam>
           <VectorParam id="60"  name="geometryCrop">
            <InterpolatingParam id="61" interp="linr"  time="-9999999/1" value="0" leadInLength="0/1"  />
            <InterpolatingParam id="62" interp="linr"  time="-9999999/1" value="0" leadInLength="0/1"  />
            <InterpolatingParam id="63" interp="linr"  time="-9999999/1" value="0" leadInLength="0/1"  />
            <InterpolatingParam id="64" interp="linr"  time="-9999999/1" value="0" leadInLength="0/1"  />
           </VectorParam>
           <InterpolatingParam id="65" interp="linr"  time="-9999999/1" value="1" leadInLength="0/1"  name="opacity"/>
          </Parameters>
          <Attributes>
           <Attribute id="66" value="" name="ident"/>
          </Attributes>
          <ExtraData>
           <Entry key="ZoomPanBin">
            <ZoomPanBin id="67"  >
             <ZoomPanKeyframes>
              <ZoomPanKeyframe id="68" timeRangeEnd="-9999999/1" timeRangeDuration="0/1" interpolaterName="linr"  />
             </ZoomPanKeyframes>
            </ZoomPanBin>
           </Entry>
          </ExtraData>
         </VMFile>
         <MetaData>
          <entry key="WinSubProjectDisplayName" val=""/>
         </MetaData>
        </UnifiedMedia>
        <UnifiedMedia id="69"  >
         <AudioTransition id="70" start="281" duration="30" >
          <Parameters>
           <InterpolatingParam id="71" interp="linr"  time="0/1" value="1" leadInLength="0/1"  name="volume"/>
           <Parameter id="72"  name="captions"/>
          </Parameters>
          <Effects>
           <GenericEffect id="73" name = "AudioTransition" >
            <Parameters>
            <Parameter id="74"   name="audioEdgeModType">
             <Keyframes>
             <Keyframe id="75"  time="0/1" value="0" leadInLength="0/1"  />
             </Keyframes>
            </Parameter>
            <Parameter id="76"   name="audioTransitionType">
             <Keyframes>
             <Keyframe id="77"  time="0/1" value="" leadInLength="0/1"  />
             </Keyframes>
            </Parameter>
            </Parameters>
            <MetaData>
            </MetaData>
           </GenericEffect>
          </Effects>
          <Attributes>
           <Attribute id="78" value="" name="ident"/>
           <Attribute id="79" value="0" name="sampleRate"/>
           <Attribute id="80" value="0" name="bitDepth"/>
           <Attribute id="81" value="1" name="gain"/>
           <Attribute id="82" value="0" name="mixToMono"/>
          </Attributes>
         </AudioTransition>
         <ImageTransition id="83" start="281" duration="30" >
          <Transformer>
           <VectorParam id="84"  name="translation">
            <InterpolatingParam id="85" interp="linr"  time="0/1" value="0" leadInLength="0/1"  />
            <InterpolatingParam id="86" interp="linr"  time="0/1" value="0" leadInLength="0/1"  />
            <InterpolatingParam id="87" interp="linr"  time="0/1" value="0" leadInLength="0/1"  />
           </VectorParam>
           <VectorParam id="88"  name="rotation">
            <InterpolatingParam id="89" interp="linr"  time="0/1" value="0" leadInLength="0/1"  />
            <InterpolatingParam id="90" interp="linr"  time="0/1" value="0" leadInLength="0/1"  />
            <InterpolatingParam id="91" interp="linr"  time="0/1" value="0" leadInLength="0/1"  />
           </VectorParam>
           <VectorParam id="92"  name="shear">
            <InterpolatingParam id="93" interp="linr"  time="0/1" value="0" leadInLength="0/1"  />
            <InterpolatingParam id="94" interp="linr"  time="0/1" value="0" leadInLength="0/1"  />
            <InterpolatingParam id="95" interp="linr"  time="0/1" value="0" leadInLength="0/1"  />
           </VectorParam>
           <VectorParam id="96"  name="scale">
            <InterpolatingParam id="97" interp="linr"  time="0/1" value="1" leadInLength="0/1"  />
            <InterpolatingParam id="98" interp="linr"  time="0/1" value="1" leadInLength="0/1"  />
            <InterpolatingParam id="99" interp="linr"  time="0/1" value="1" leadInLength="0/1"  />
           </VectorParam>
           <VectorParam id="100"  name="anchor">
            <InterpolatingParam id="101" interp="linr"  time="0/1" value="0" leadInLength="0/1"  />
            <InterpolatingParam id="102" interp="linr"  time="0/1" value="0" leadInLength="0/1"  />
            <InterpolatingParam id="103" interp="linr"  time="0/1" value="0" leadInLength="0/1"  />
           </VectorParam>
          </Transformer>
          <Parameters>
           <VectorParam id="104"  name="sourceCrop">
            <InterpolatingParam id="105" interp="linr"  time="0/1" value="0" leadInLength="0/1"  />
            <InterpolatingParam id="106" interp="linr"  time="0/1" value="0" leadInLength="0/1"  />
            <InterpolatingParam id="107" interp="linr"  time="0/1" value="0" leadInLength="0/1"  />
            <InterpolatingParam id="108" interp="linr"  time="0/1" value="0" leadInLength="0/1"  />
           </VectorParam>
           <VectorParam id="109"  name="geometryCrop">
            <InterpolatingParam id="110" interp="linr"  time="0/1" value="0" leadInLength="0/1"  />
            <InterpolatingParam id="111" interp="linr"  time="0/1" value="0" leadInLength="0/1"  />
            <InterpolatingParam id="112" interp="linr"  time="0/1" value="0" leadInLength="0/1"  />
            <InterpolatingParam id="113" interp="linr"  time="0/1" value="0" leadInLength="0/1"  />
           </VectorParam>
           <InterpolatingParam id="114" interp="linr"  time="0/1" value="1" leadInLength="0/1"  name="opacity"/>
          </Parameters>
          <Effects>
           <GenericEffect id="115" name = "VisualTransition" >
            <Parameters>
            <InterpolatingParam id="116" interp="linr"  time="0/1" value="1" leadInLength="0/1"   name="leftFramePercentage"/>
            <InterpolatingParam id="117" interp="linr"  time="0/1" value="1" leadInLength="0/1"   name="rightFramePercentage"/>
            <Parameter id="118"   name="visualEdgeModType">
             <Keyframes>
             <Keyframe id="119"  time="0/1" value="0" leadInLength="0/1"  />
             </Keyframes>
            </Parameter>
            <Parameter id="120"   name="visualTransitionType">
             <Keyframes>
             <Keyframe id="121"  time="0/1" value="Fade" leadInLength="0/1"  />
             </Keyframes>
            </Parameter>
            </Parameters>
            <MetaData>
            </MetaData>
           </GenericEffect>
          </Effects>
          <Attributes>
           <Attribute id="122" value="" name="ident"/>
          </Attributes>
          <ExtraData>
           <Entry key="ZoomPanBin">
            <ZoomPanBin id="123"  >
             <ZoomPanKeyframes>
             </ZoomPanKeyframes>
            </ZoomPanBin>
           </Entry>
          </ExtraData>
         </ImageTransition>
         <MetaData>
          <entry key="WinSubProjectDisplayName" val=""/>
         </MetaData>
        </UnifiedMedia>
        <UnifiedMedia id="124"  >
         <AMFile id="125" start="311" duration="228" scalar="1/1" mediaStart="365/1" mediaDuration="228/1" trackNumber="1" src="4" channelNumber="0,1" >
          <Parameters>
           <InterpolatingParam id="126" interp="linr"  time="0/1" value="1" leadInLength="0/1"  name="volume"/>
           <Parameter id="127"  name="captions"/>
          </Parameters>
          <Attributes>
           <Attribute id="128" value="" name="ident"/>
           <Attribute id="129" value="44100" name="sampleRate"/>
           <Attribute id="130" value="16" name="bitDepth"/>
           <Attribute id="131" value="1" name="gain"/>
           <Attribute id="132" value="0" name="mixToMono"/>
          </Attributes>
         </AMFile>
         <VMFile id="133" start="311" duration="228" scalar="1/1" mediaStart="365/1" mediaDuration="228/1" trackNumber="0" src="4" >
          <Transformer>
           <VectorParam id="134"  name="translation">
            <InterpolatingParam id="135" interp="linr"  time="-9999999/1" value="0" leadInLength="0/1"  />
            <InterpolatingParam id="136" interp="linr"  time="-9999999/1" value="0" leadInLength="0/1"  />
            <InterpolatingParam id="137" interp="linr"  time="-9999999/1" value="0" leadInLength="0/1"  />
           </VectorParam>
           <VectorParam id="138"  name="rotation">
            <InterpolatingParam id="139" interp="linr"  time="-9999999/1" value="0" leadInLength="0/1"  />
            <InterpolatingParam id="140" interp="linr"  time="-9999999/1" value="0" leadInLength="0/1"  />
            <InterpolatingParam id="141" interp="linr"  time="-9999999/1" value="0" leadInLength="0/1"  />
           </VectorParam>
           <VectorParam id="142"  name="shear">
            <InterpolatingParam id="143" interp="linr"  time="-9999999/1" value="0" leadInLength="0/1"  />
            <InterpolatingParam id="144" interp="linr"  time="-9999999/1" value="0" leadInLength="0/1"  />
            <InterpolatingParam id="145" interp="linr"  time="-9999999/1" value="0" leadInLength="0/1"  />
           </VectorParam>
           <VectorParam id="146"  name="scale">
            <InterpolatingParam id="147" interp="linr"  time="-9999999/1" value="0.59999999999999998" leadInLength="0/1"  />
            <InterpolatingParam id="148" interp="linr"  time="-9999999/1" value="0.59999999999999998" leadInLength="0/1"  />
            <InterpolatingParam id="149" interp="linr"  time="-9999999/1" value="1" leadInLength="0/1"  />
           </VectorParam>
           <VectorParam id="150"  name="anchor">
            <InterpolatingParam id="151" interp="linr"  time="0/1" value="0" leadInLength="0/1"  />
            <InterpolatingParam id="152" interp="linr"  time="0/1" value="0" leadInLength="0/1"  />
            <InterpolatingParam id="153" interp="linr"  time="0/1" value="0" leadInLength="0/1"  />
           </VectorParam>
          </Transformer>
          <Parameters>
           <VectorParam id="154"  name="sourceCrop">
            <InterpolatingParam id="155" interp="linr"  time="0/1" value="0" leadInLength="0/1"  />
            <InterpolatingParam id="156" interp="linr"  time="0/1" value="0" leadInLength="0/1"  />
            <InterpolatingParam id="157" interp="linr"  time="0/1" value="0" leadInLength="0/1"  />
            <InterpolatingParam id="158" interp="linr"  time="0/1" value="0" leadInLength="0/1"  />
           </VectorParam>
           <VectorParam id="159"  name="geometryCrop">
            <InterpolatingParam id="160" interp="linr"  time="-9999999/1" value="0" leadInLength="0/1"  />
            <InterpolatingParam id="161" interp="linr"  time="-9999999/1" value="0" leadInLength="0/1"  />
            <InterpolatingParam id="162" interp="linr"  time="-9999999/1" value="0" leadInLength="0/1"  />
            <InterpolatingParam id="163" interp="linr"  time="-9999999/1" value="0" leadInLength="0/1"  />
           </VectorParam>
           <InterpolatingParam id="164" interp="linr"  time="-9999999/1" value="1" leadInLength="0/1"  name="opacity"/>
          </Parameters>
          <Attributes>
           <Attribute id="165" value="" name="ident"/>
          </Attributes>
          <ExtraData>
           <Entry key="ZoomPanBin">
            <ZoomPanBin id="166"  >
             <ZoomPanKeyframes>
              <ZoomPanKeyframe id="167" timeRangeEnd="-9999999/1" timeRangeDuration="0/1" interpolaterName="linr"  />
             </ZoomPanKeyframes>
            </ZoomPanBin>
           </Entry>
          </ExtraData>
         </VMFile>
         <MetaData>
          <entry key="WinSubProjectDisplayName" val=""/>
         </MetaData>
        </UnifiedMedia>
        <UnifiedMedia id="168"  >
         <AMFile id="169" start="539" duration="102" scalar="1/1" mediaStart="16/1" mediaDuration="102/1" trackNumber="1" src="10" channelNumber="0,1" >
          <Parameters>
           <InterpolatingParam id="170" interp="linr"  time="0/1" value="1" leadInLength="0/1"  name="volume"/>
           <Parameter id="171"  name="captions"/>
          </Parameters>
          <Attributes>
           <Attribute id="172" value="" name="ident"/>
           <Attribute id="173" value="44100" name="sampleRate"/>
           <Attribute id="174" value="16" name="bitDepth"/>
           <Attribute id="175" value="1" name="gain"/>
           <Attribute id="176" value="0" name="mixToMono"/>
          </Attributes>
         </AMFile>
         <VMFile id="177" start="539" duration="102" scalar="1/1" mediaStart="16/1" mediaDuration="102/1" trackNumber="0" src="10" >
          <Transformer>
           <VectorParam id="178"  name="translation">
            <InterpolatingParam id="179" interp="linr"  time="-9999999/1" value="0" leadInLength="0/1"  />
            <InterpolatingParam id="180" interp="linr"  time="-9999999/1" value="0" leadInLength="0/1"  />
            <InterpolatingParam id="181" interp="linr"  time="-9999999/1" value="0" leadInLength="0/1"  />
           </VectorParam>
           <VectorParam id="182"  name="rotation">
            <InterpolatingParam id="183" interp="linr"  time="-9999999/1" value="0" leadInLength="0/1"  />
            <InterpolatingParam id="184" interp="linr"  time="-9999999/1" value="0" leadInLength="0/1"  />
            <InterpolatingParam id="185" interp="linr"  time="-9999999/1" value="0" leadInLength="0/1"  />
           </VectorParam>
           <VectorParam id="186"  name="shear">
            <InterpolatingParam id="187" interp="linr"  time="-9999999/1" value="0" leadInLength="0/1"  />
            <InterpolatingParam id="188" interp="linr"  time="-9999999/1" value="0" leadInLength="0/1"  />
            <InterpolatingParam id="189" interp="linr"  time="-9999999/1" value="0" leadInLength="0/1"  />
           </VectorParam>
           <VectorParam id="190"  name="scale">
            <InterpolatingParam id="191" interp="linr"  time="-9999999/1" value="1.0000000000000175" leadInLength="0/1"  />
            <InterpolatingParam id="192" interp="linr"  time="-9999999/1" value="1.0000000000000178" leadInLength="0/1"  />
            <InterpolatingParam id="193" interp="linr"  time="-9999999/1" value="1" leadInLength="0/1"  />
           </VectorParam>
           <VectorParam id="194"  name="anchor">
            <InterpolatingParam id="195" interp="linr"  time="0/1" value="0" leadInLength="0/1"  />
            <InterpolatingParam id="196" interp="linr"  time="0/1" value="0" leadInLength="0/1"  />
            <InterpolatingParam id="197" interp="linr"  time="0/1" value="0" leadInLength="0/1"  />
           </VectorParam>
          </Transformer>
          <Parameters>
           <VectorParam id="198"  name="sourceCrop">
            <InterpolatingParam id="199" interp="linr"  time="0/1" value="0" leadInLength="0/1"  />
            <InterpolatingParam id="200" interp="linr"  time="0/1" value="0" leadInLength="0/1"  />
            <InterpolatingParam id="201" interp="linr"  time="0/1" value="0" leadInLength="0/1"  />
            <InterpolatingParam id="202" interp="linr"  time="0/1" value="0" leadInLength="0/1"  />
           </VectorParam>
           <VectorParam id="203"  name="geometryCrop">
            <InterpolatingParam id="204" interp="linr"  time="-9999999/1" value="0" leadInLength="0/1"  />
            <InterpolatingParam id="205" interp="linr"  time="-9999999/1" value="0" leadInLength="0/1"  />
            <InterpolatingParam id="206" interp="linr"  time="-9999999/1" value="0" leadInLength="0/1"  />
            <InterpolatingParam id="207" interp="linr"  time="-9999999/1" value="0" leadInLength="0/1"  />
           </VectorParam>
           <InterpolatingParam id="208" interp="linr"  time="-9999999/1" value="1" leadInLength="0/1"  name="opacity"/>
          </Parameters>
          <Attributes>
           <Attribute id="209" value="" name="ident"/>
          </Attributes>
          <ExtraData>
           <Entry key="ZoomPanBin">
            <ZoomPanBin id="210"  >
             <ZoomPanKeyframes>
              <ZoomPanKeyframe id="211" timeRangeEnd="-9999999/1" timeRangeDuration="0/1" interpolaterName="linr"  />
             </ZoomPanKeyframes>
            </ZoomPanBin>
           </Entry>
          </ExtraData>
         </VMFile>
         <MetaData>
          <entry key="WinSubProjectDisplayName" val=""/>
         </MetaData>
        </UnifiedMedia>
        <UnifiedMedia id="212"  >
         <AudioTransition id="213" start="641" duration="30" >
          <Parameters>
           <InterpolatingParam id="214" interp="linr"  time="0/1" value="1" leadInLength="0/1"  name="volume"/>
           <Parameter id="215"  name="captions"/>
          </Parameters>
          <Effects>
           <GenericEffect id="216" name = "AudioTransition" >
            <Parameters>
            <Parameter id="217"   name="audioEdgeModType">
             <Keyframes>
             <Keyframe id="218"  time="0/1" value="0" leadInLength="0/1"  />
             </Keyframes>
            </Parameter>
            <Parameter id="219"   name="audioTransitionType">
             <Keyframes>
             <Keyframe id="220"  time="0/1" value="" leadInLength="0/1"  />
             </Keyframes>
            </Parameter>
            </Parameters>
            <MetaData>
            </MetaData>
           </GenericEffect>
          </Effects>
          <Attributes>
           <Attribute id="221" value="" name="ident"/>
           <Attribute id="222" value="0" name="sampleRate"/>
           <Attribute id="223" value="0" name="bitDepth"/>
           <Attribute id="224" value="1" name="gain"/>
           <Attribute id="225" value="0" name="mixToMono"/>
          </Attributes>
         </AudioTransition>
         <ImageTransition id="226" start="641" duration="30" >
          <Transformer>
           <VectorParam id="227"  name="translation">
            <InterpolatingParam id="228" interp="linr"  time="0/1" value="0" leadInLength="0/1"  />
            <InterpolatingParam id="229" interp="linr"  time="0/1" value="0" leadInLength="0/1"  />
            <InterpolatingParam id="230" interp="linr"  time="0/1" value="0" leadInLength="0/1"  />
           </VectorParam>
           <VectorParam id="231"  name="rotation">
            <InterpolatingParam id="232" interp="linr"  time="0/1" value="0" leadInLength="0/1"  />
            <InterpolatingParam id="233" interp="linr"  time="0/1" value="0" leadInLength="0/1"  />
            <InterpolatingParam id="234" interp="linr"  time="0/1" value="0" leadInLength="0/1"  />
           </VectorParam>
           <VectorParam id="235"  name="shear">
            <InterpolatingParam id="236" interp="linr"  time="0/1" value="0" leadInLength="0/1"  />
            <InterpolatingParam id="237" interp="linr"  time="0/1" value="0" leadInLength="0/1"  />
            <InterpolatingParam id="238" interp="linr"  time="0/1" value="0" leadInLength="0/1"  />
           </VectorParam>
           <VectorParam id="239"  name="scale">
            <InterpolatingParam id="240" interp="linr"  time="0/1" value="1" leadInLength="0/1"  />
            <InterpolatingParam id="241" interp="linr"  time="0/1" value="1" leadInLength="0/1"  />
            <InterpolatingParam id="242" interp="linr"  time="0/1" value="1" leadInLength="0/1"  />
           </VectorParam>
           <VectorParam id="243"  name="anchor">
            <InterpolatingParam id="244" interp="linr"  time="0/1" value="0" leadInLength="0/1"  />
            <InterpolatingParam id="245" interp="linr"  time="0/1" value="0" leadInLength="0/1"  />
            <InterpolatingParam id="246" interp="linr"  time="0/1" value="0" leadInLength="0/1"  />
           </VectorParam>
          </Transformer>
          <Parameters>
           <VectorParam id="247"  name="sourceCrop">
            <InterpolatingParam id="248" interp="linr"  time="0/1" value="0" leadInLength="0/1"  />
            <InterpolatingParam id="249" interp="linr"  time="0/1" value="0" leadInLength="0/1"  />
            <InterpolatingParam id="250" interp="linr"  time="0/1" value="0" leadInLength="0/1"  />
            <InterpolatingParam id="251" interp="linr"  time="0/1" value="0" leadInLength="0/1"  />
           </VectorParam>
           <VectorParam id="252"  name="geometryCrop">
            <InterpolatingParam id="253" interp="linr"  time="0/1" value="0" leadInLength="0/1"  />
            <InterpolatingParam id="254" interp="linr"  time="0/1" value="0" leadInLength="0/1"  />
            <InterpolatingParam id="255" interp="linr"  time="0/1" value="0" leadInLength="0/1"  />
            <InterpolatingParam id="256" interp="linr"  time="0/1" value="0" leadInLength="0/1"  />
           </VectorParam>
           <InterpolatingParam id="257" interp="linr"  time="0/1" value="1" leadInLength="0/1"  name="opacity"/>
          </Parameters>
          <Effects>
           <GenericEffect id="258" name = "VisualTransition" >
            <Parameters>
            <InterpolatingParam id="259" interp="linr"  time="0/1" value="1" leadInLength="0/1"   name="leftFramePercentage"/>
            <InterpolatingParam id="260" interp="linr"  time="0/1" value="1" leadInLength="0/1"   name="rightFramePercentage"/>
            <Parameter id="261"   name="visualEdgeModType">
             <Keyframes>
             <Keyframe id="262"  time="0/1" value="0" leadInLength="0/1"  />
             </Keyframes>
            </Parameter>
            <Parameter id="263"   name="visualTransitionType">
             <Keyframes>
             <Keyframe id="264"  time="0/1" value="Fade" leadInLength="0/1"  />
             </Keyframes>
            </Parameter>
            </Parameters>
            <MetaData>
            </MetaData>
           </GenericEffect>
          </Effects>
          <Attributes>
           <Attribute id="265" value="" name="ident"/>
          </Attributes>
          <ExtraData>
           <Entry key="ZoomPanBin">
            <ZoomPanBin id="266"  >
             <ZoomPanKeyframes>
             </ZoomPanKeyframes>
            </ZoomPanBin>
           </Entry>
          </ExtraData>
         </ImageTransition>
         <MetaData>
          <entry key="WinSubProjectDisplayName" val=""/>
         </MetaData>
        </UnifiedMedia>
        <UnifiedMedia id="267"  >
         <AMFile id="268" start="671" duration="30" scalar="1/1" mediaStart="288/1" mediaDuration="30/1" trackNumber="1" src="10" channelNumber="0,1" >
          <Parameters>
           <InterpolatingParam id="269" interp="linr"  time="0/1" value="1" leadInLength="0/1"  name="volume"/>
           <Parameter id="270"  name="captions"/>
          </Parameters>
          <Attributes>
           <Attribute id="271" value="" name="ident"/>
           <Attribute id="272" value="44100" name="sampleRate"/>
           <Attribute id="273" value="16" name="bitDepth"/>
           <Attribute id="274" value="1" name="gain"/>
           <Attribute id="275" value="0" name="mixToMono"/>
          </Attributes>
         </AMFile>
         <VMFile id="276" start="671" duration="30" scalar="1/1" mediaStart="288/1" mediaDuration="30/1" trackNumber="0" src="10" >
          <Transformer>
           <VectorParam id="277"  name="translation">
            <InterpolatingParam id="278" interp="linr"  time="-9999999/1" value="0" leadInLength="0/1"  />
            <InterpolatingParam id="279" interp="linr"  time="-9999999/1" value="0" leadInLength="0/1"  />
            <InterpolatingParam id="280" interp="linr"  time="-9999999/1" value="0" leadInLength="0/1"  />
           </VectorParam>
           <VectorParam id="281"  name="rotation">
            <InterpolatingParam id="282" interp="linr"  time="-9999999/1" value="0" leadInLength="0/1"  />
            <InterpolatingParam id="283" interp="linr"  time="-9999999/1" value="0" leadInLength="0/1"  />
            <InterpolatingParam id="284" interp="linr"  time="-9999999/1" value="0" leadInLength="0/1"  />
           </VectorParam>
           <VectorParam id="285"  name="shear">
            <InterpolatingParam id="286" interp="linr"  time="-9999999/1" value="0" leadInLength="0/1"  />
            <InterpolatingParam id="287" interp="linr"  time="-9999999/1" value="0" leadInLength="0/1"  />
            <InterpolatingParam id="288" interp="linr"  time="-9999999/1" value="0" leadInLength="0/1"  />
           </VectorParam>
           <VectorParam id="289"  name="scale">
            <InterpolatingParam id="290" interp="linr"  time="-9999999/1" value="1.0000000000000175" leadInLength="0/1"  />
            <InterpolatingParam id="291" interp="linr"  time="-9999999/1" value="1.0000000000000178" leadInLength="0/1"  />
            <InterpolatingParam id="292" interp="linr"  time="-9999999/1" value="1" leadInLength="0/1"  />
           </VectorParam>
           <VectorParam id="293"  name="anchor">
            <InterpolatingParam id="294" interp="linr"  time="0/1" value="0" leadInLength="0/1"  />
            <InterpolatingParam id="295" interp="linr"  time="0/1" value="0" leadInLength="0/1"  />
            <InterpolatingParam id="296" interp="linr"  time="0/1" value="0" leadInLength="0/1"  />
           </VectorParam>
          </Transformer>
          <Parameters>
           <VectorParam id="297"  name="sourceCrop">
            <InterpolatingParam id="298" interp="linr"  time="0/1" value="0" leadInLength="0/1"  />
            <InterpolatingParam id="299" interp="linr"  time="0/1" value="0" leadInLength="0/1"  />
            <InterpolatingParam id="300" interp="linr"  time="0/1" value="0" leadInLength="0/1"  />
            <InterpolatingParam id="301" interp="linr"  time="0/1" value="0" leadInLength="0/1"  />
           </VectorParam>
           <VectorParam id="302"  name="geometryCrop">
            <InterpolatingParam id="303" interp="linr"  time="-9999999/1" value="0" leadInLength="0/1"  />
            <InterpolatingParam id="304" interp="linr"  time="-9999999/1" value="0" leadInLength="0/1"  />
            <InterpolatingParam id="305" interp="linr"  time="-9999999/1" value="0" leadInLength="0/1"  />
            <InterpolatingParam id="306" interp="linr"  time="-9999999/1" value="0" leadInLength="0/1"  />
           </VectorParam>
           <InterpolatingParam id="307" interp="linr"  time="-9999999/1" value="1" leadInLength="0/1"  name="opacity"/>
          </Parameters>
          <Attributes>
           <Attribute id="308" value="" name="ident"/>
          </Attributes>
          <ExtraData>
           <Entry key="ZoomPanBin">
            <ZoomPanBin id="309"  >
             <ZoomPanKeyframes>
              <ZoomPanKeyframe id="310" timeRangeEnd="-9999999/1" timeRangeDuration="0/1" interpolaterName="linr"  />
             </ZoomPanKeyframes>
            </ZoomPanBin>
           </Entry>
          </ExtraData>
         </VMFile>
         <MetaData>
          <entry key="WinSubProjectDisplayName" val=""/>
         </MetaData>
        </UnifiedMedia>
        <UnifiedMedia id="311"  >
         <AudioTransition id="312" start="701" duration="30" >
          <Parameters>
           <InterpolatingParam id="313" interp="linr"  time="0/1" value="1" leadInLength="0/1"  name="volume"/>
           <Parameter id="314"  name="captions"/>
          </Parameters>
          <Effects>
           <GenericEffect id="315" name = "AudioTransition" >
            <Parameters>
            <Parameter id="316"   name="audioEdgeModType">
             <Keyframes>
             <Keyframe id="317"  time="0/1" value="0" leadInLength="0/1"  />
             </Keyframes>
            </Parameter>
            <Parameter id="318"   name="audioTransitionType">
             <Keyframes>
             <Keyframe id="319"  time="0/1" value="" leadInLength="0/1"  />
             </Keyframes>
            </Parameter>
            </Parameters>
            <MetaData>
            </MetaData>
           </GenericEffect>
          </Effects>
          <Attributes>
           <Attribute id="320" value="" name="ident"/>
           <Attribute id="321" value="0" name="sampleRate"/>
           <Attribute id="322" value="0" name="bitDepth"/>
           <Attribute id="323" value="1" name="gain"/>
           <Attribute id="324" value="0" name="mixToMono"/>
          </Attributes>
         </AudioTransition>
         <ImageTransition id="325" start="701" duration="30" >
          <Transformer>
           <VectorParam id="326"  name="translation">
            <InterpolatingParam id="327" interp="linr"  time="0/1" value="0" leadInLength="0/1"  />
            <InterpolatingParam id="328" interp="linr"  time="0/1" value="0" leadInLength="0/1"  />
            <InterpolatingParam id="329" interp="linr"  time="0/1" value="0" leadInLength="0/1"  />
           </VectorParam>
           <VectorParam id="330"  name="rotation">
            <InterpolatingParam id="331" interp="linr"  time="0/1" value="0" leadInLength="0/1"  />
            <InterpolatingParam id="332" interp="linr"  time="0/1" value="0" leadInLength="0/1"  />
            <InterpolatingParam id="333" interp="linr"  time="0/1" value="0" leadInLength="0/1"  />
           </VectorParam>
           <VectorParam id="334"  name="shear">
            <InterpolatingParam id="335" interp="linr"  time="0/1" value="0" leadInLength="0/1"  />
            <InterpolatingParam id="336" interp="linr"  time="0/1" value="0" leadInLength="0/1"  />
            <InterpolatingParam id="337" interp="linr"  time="0/1" value="0" leadInLength="0/1"  />
           </VectorParam>
           <VectorParam id="338"  name="scale">
            <InterpolatingParam id="339" interp="linr"  time="0/1" value="1" leadInLength="0/1"  />
            <InterpolatingParam id="340" interp="linr"  time="0/1" value="1" leadInLength="0/1"  />
            <InterpolatingParam id="341" interp="linr"  time="0/1" value="1" leadInLength="0/1"  />
           </VectorParam>
           <VectorParam id="342"  name="anchor">
            <InterpolatingParam id="343" interp="linr"  time="0/1" value="0" leadInLength="0/1"  />
            <InterpolatingParam id="344" interp="linr"  time="0/1" value="0" leadInLength="0/1"  />
            <InterpolatingParam id="345" interp="linr"  time="0/1" value="0" leadInLength="0/1"  />
           </VectorParam>
          </Transformer>
          <Parameters>
           <VectorParam id="346"  name="sourceCrop">
            <InterpolatingParam id="347" interp="linr"  time="0/1" value="0" leadInLength="0/1"  />
            <InterpolatingParam id="348" interp="linr"  time="0/1" value="0" leadInLength="0/1"  />
            <InterpolatingParam id="349" interp="linr"  time="0/1" value="0" leadInLength="0/1"  />
            <InterpolatingParam id="350" interp="linr"  time="0/1" value="0" leadInLength="0/1"  />
           </VectorParam>
           <VectorParam id="351"  name="geometryCrop">
            <InterpolatingParam id="352" interp="linr"  time="0/1" value="0" leadInLength="0/1"  />
            <InterpolatingParam id="353" interp="linr"  time="0/1" value="0" leadInLength="0/1"  />
            <InterpolatingParam id="354" interp="linr"  time="0/1" value="0" leadInLength="0/1"  />
            <InterpolatingParam id="355" interp="linr"  time="0/1" value="0" leadInLength="0/1"  />
           </VectorParam>
           <InterpolatingParam id="356" interp="linr"  time="0/1" value="1" leadInLength="0/1"  name="opacity"/>
          </Parameters>
          <Effects>
           <GenericEffect id="357" name = "VisualTransition" >
            <Parameters>
            <InterpolatingParam id="358" interp="linr"  time="0/1" value="1" leadInLength="0/1"   name="leftFramePercentage"/>
            <InterpolatingParam id="359" interp="linr"  time="0/1" value="1" leadInLength="0/1"   name="rightFramePercentage"/>
            <Parameter id="360"   name="visualEdgeModType">
             <Keyframes>
             <Keyframe id="361"  time="0/1" value="0" leadInLength="0/1"  />
             </Keyframes>
            </Parameter>
            <Parameter id="362"   name="visualTransitionType">
             <Keyframes>
             <Keyframe id="363"  time="0/1" value="Fade" leadInLength="0/1"  />
             </Keyframes>
            </Parameter>
            </Parameters>
            <MetaData>
            </MetaData>
           </GenericEffect>
          </Effects>
          <Attributes>
           <Attribute id="364" value="" name="ident"/>
          </Attributes>
          <ExtraData>
           <Entry key="ZoomPanBin">
            <ZoomPanBin id="365"  >
             <ZoomPanKeyframes>
             </ZoomPanKeyframes>
            </ZoomPanBin>
           </Entry>
          </ExtraData>
         </ImageTransition>
         <MetaData>
          <entry key="WinSubProjectDisplayName" val=""/>
         </MetaData>
        </UnifiedMedia>
        <UnifiedMedia id="366"  >
         <AMFile id="367" start="731" duration="181" scalar="1/1" mediaStart="15/1" mediaDuration="181/1" trackNumber="1" src="11" channelNumber="0,1" >
          <Parameters>
           <InterpolatingParam id="368" interp="linr"  time="0/1" value="1" leadInLength="0/1"  name="volume"/>
           <Parameter id="369"  name="captions"/>
          </Parameters>
          <Attributes>
           <Attribute id="370" value="" name="ident"/>
           <Attribute id="371" value="44100" name="sampleRate"/>
           <Attribute id="372" value="16" name="bitDepth"/>
           <Attribute id="373" value="1" name="gain"/>
           <Attribute id="374" value="0" name="mixToMono"/>
          </Attributes>
         </AMFile>
         <VMFile id="375" start="731" duration="181" scalar="1/1" mediaStart="15/1" mediaDuration="181/1" trackNumber="0" src="11" >
          <Transformer>
           <VectorParam id="376"  name="translation">
            <InterpolatingParam id="377" interp="linr"  time="-9999999/1" value="0" leadInLength="0/1"  />
            <InterpolatingParam id="378" interp="linr"  time="-9999999/1" value="0" leadInLength="0/1"  />
            <InterpolatingParam id="379" interp="linr"  time="-9999999/1" value="0" leadInLength="0/1"  />
           </VectorParam>
           <VectorParam id="380"  name="rotation">
            <InterpolatingParam id="381" interp="linr"  time="-9999999/1" value="0" leadInLength="0/1"  />
            <InterpolatingParam id="382" interp="linr"  time="-9999999/1" value="0" leadInLength="0/1"  />
            <InterpolatingParam id="383" interp="linr"  time="-9999999/1" value="0" leadInLength="0/1"  />
           </VectorParam>
           <VectorParam id="384"  name="shear">
            <InterpolatingParam id="385" interp="linr"  time="-9999999/1" value="0" leadInLength="0/1"  />
            <InterpolatingParam id="386" interp="linr"  time="-9999999/1" value="0" leadInLength="0/1"  />
            <InterpolatingParam id="387" interp="linr"  time="-9999999/1" value="0" leadInLength="0/1"  />
           </VectorParam>
           <VectorParam id="388"  name="scale">
            <InterpolatingParam id="389" interp="linr"  time="-9999999/1" value="1.0000000000000175" leadInLength="0/1"  />
            <InterpolatingParam id="390" interp="linr"  time="-9999999/1" value="1.0000000000000178" leadInLength="0/1"  />
            <InterpolatingParam id="391" interp="linr"  time="-9999999/1" value="1" leadInLength="0/1"  />
           </VectorParam>
           <VectorParam id="392"  name="anchor">
            <InterpolatingParam id="393" interp="linr"  time="0/1" value="0" leadInLength="0/1"  />
            <InterpolatingParam id="394" interp="linr"  time="0/1" value="0" leadInLength="0/1"  />
            <InterpolatingParam id="395" interp="linr"  time="0/1" value="0" leadInLength="0/1"  />
           </VectorParam>
          </Transformer>
          <Parameters>
           <VectorParam id="396"  name="sourceCrop">
            <InterpolatingParam id="397" interp="linr"  time="0/1" value="0" leadInLength="0/1"  />
            <InterpolatingParam id="398" interp="linr"  time="0/1" value="0" leadInLength="0/1"  />
            <InterpolatingParam id="399" interp="linr"  time="0/1" value="0" leadInLength="0/1"  />
            <InterpolatingParam id="400" interp="linr"  time="0/1" value="0" leadInLength="0/1"  />
           </VectorParam>
           <VectorParam id="401"  name="geometryCrop">
            <InterpolatingParam id="402" interp="linr"  time="-9999999/1" value="0" leadInLength="0/1"  />
            <InterpolatingParam id="403" interp="linr"  time="-9999999/1" value="0" leadInLength="0/1"  />
            <InterpolatingParam id="404" interp="linr"  time="-9999999/1" value="0" leadInLength="0/1"  />
            <InterpolatingParam id="405" interp="linr"  time="-9999999/1" value="0" leadInLength="0/1"  />
           </VectorParam>
           <InterpolatingParam id="406" interp="linr"  time="-9999999/1" value="1" leadInLength="0/1"  name="opacity"/>
          </Parameters>
          <Attributes>
           <Attribute id="407" value="" name="ident"/>
          </Attributes>
          <ExtraData>
           <Entry key="ZoomPanBin">
            <ZoomPanBin id="408"  >
             <ZoomPanKeyframes>
              <ZoomPanKeyframe id="409" timeRangeEnd="-9999999/1" timeRangeDuration="0/1" interpolaterName="linr"  />
             </ZoomPanKeyframes>
            </ZoomPanBin>
           </Entry>
          </ExtraData>
         </VMFile>
         <MetaData>
          <entry key="WinSubProjectDisplayName" val=""/>
         </MetaData>
        </UnifiedMedia>
        <UnifiedMedia id="410"  >
         <AudioTransition id="411" start="912" duration="30" >
          <Parameters>
           <InterpolatingParam id="412" interp="linr"  time="0/1" value="1" leadInLength="0/1"  name="volume"/>
           <Parameter id="413"  name="captions"/>
          </Parameters>
          <Effects>
           <GenericEffect id="414" name = "AudioTransition" >
            <Parameters>
            <Parameter id="415"   name="audioEdgeModType">
             <Keyframes>
             <Keyframe id="416"  time="0/1" value="0" leadInLength="0/1"  />
             </Keyframes>
            </Parameter>
            <Parameter id="417"   name="audioTransitionType">
             <Keyframes>
             <Keyframe id="418"  time="0/1" value="" leadInLength="0/1"  />
             </Keyframes>
            </Parameter>
            </Parameters>
            <MetaData>
            </MetaData>
           </GenericEffect>
          </Effects>
          <Attributes>
           <Attribute id="419" value="" name="ident"/>
           <Attribute id="420" value="0" name="sampleRate"/>
           <Attribute id="421" value="0" name="bitDepth"/>
           <Attribute id="422" value="1" name="gain"/>
           <Attribute id="423" value="0" name="mixToMono"/>
          </Attributes>
         </AudioTransition>
         <ImageTransition id="424" start="912" duration="30" >
          <Transformer>
           <VectorParam id="425"  name="translation">
            <InterpolatingParam id="426" interp="linr"  time="0/1" value="0" leadInLength="0/1"  />
            <InterpolatingParam id="427" interp="linr"  time="0/1" value="0" leadInLength="0/1"  />
            <InterpolatingParam id="428" interp="linr"  time="0/1" value="0" leadInLength="0/1"  />
           </VectorParam>
           <VectorParam id="429"  name="rotation">
            <InterpolatingParam id="430" interp="linr"  time="0/1" value="0" leadInLength="0/1"  />
            <InterpolatingParam id="431" interp="linr"  time="0/1" value="0" leadInLength="0/1"  />
            <InterpolatingParam id="432" interp="linr"  time="0/1" value="0" leadInLength="0/1"  />
           </VectorParam>
           <VectorParam id="433"  name="shear">
            <InterpolatingParam id="434" interp="linr"  time="0/1" value="0" leadInLength="0/1"  />
            <InterpolatingParam id="435" interp="linr"  time="0/1" value="0" leadInLength="0/1"  />
            <InterpolatingParam id="436" interp="linr"  time="0/1" value="0" leadInLength="0/1"  />
           </VectorParam>
           <VectorParam id="437"  name="scale">
            <InterpolatingParam id="438" interp="linr"  time="0/1" value="1" leadInLength="0/1"  />
            <InterpolatingParam id="439" interp="linr"  time="0/1" value="1" leadInLength="0/1"  />
            <InterpolatingParam id="440" interp="linr"  time="0/1" value="1" leadInLength="0/1"  />
           </VectorParam>
           <VectorParam id="441"  name="anchor">
            <InterpolatingParam id="442" interp="linr"  time="0/1" value="0" leadInLength="0/1"  />
            <InterpolatingParam id="443" interp="linr"  time="0/1" value="0" leadInLength="0/1"  />
            <InterpolatingParam id="444" interp="linr"  time="0/1" value="0" leadInLength="0/1"  />
           </VectorParam>
          </Transformer>
          <Parameters>
           <VectorParam id="445"  name="sourceCrop">
            <InterpolatingParam id="446" interp="linr"  time="0/1" value="0" leadInLength="0/1"  />
            <InterpolatingParam id="447" interp="linr"  time="0/1" value="0" leadInLength="0/1"  />
            <InterpolatingParam id="448" interp="linr"  time="0/1" value="0" leadInLength="0/1"  />
            <InterpolatingParam id="449" interp="linr"  time="0/1" value="0" leadInLength="0/1"  />
           </VectorParam>
           <VectorParam id="450"  name="geometryCrop">
            <InterpolatingParam id="451" interp="linr"  time="0/1" value="0" leadInLength="0/1"  />
            <InterpolatingParam id="452" interp="linr"  time="0/1" value="0" leadInLength="0/1"  />
            <InterpolatingParam id="453" interp="linr"  time="0/1" value="0" leadInLength="0/1"  />
            <InterpolatingParam id="454" interp="linr"  time="0/1" value="0" leadInLength="0/1"  />
           </VectorParam>
           <InterpolatingParam id="455" interp="linr"  time="0/1" value="1" leadInLength="0/1"  name="opacity"/>
          </Parameters>
          <Effects>
           <GenericEffect id="456" name = "VisualTransition" >
            <Parameters>
            <InterpolatingParam id="457" interp="linr"  time="0/1" value="1" leadInLength="0/1"   name="leftFramePercentage"/>
            <InterpolatingParam id="458" interp="linr"  time="0/1" value="1" leadInLength="0/1"   name="rightFramePercentage"/>
            <Parameter id="459"   name="visualEdgeModType">
             <Keyframes>
             <Keyframe id="460"  time="0/1" value="0" leadInLength="0/1"  />
             </Keyframes>
            </Parameter>
            <Parameter id="461"   name="visualTransitionType">
             <Keyframes>
             <Keyframe id="462"  time="0/1" value="Fade" leadInLength="0/1"  />
             </Keyframes>
            </Parameter>
            </Parameters>
            <MetaData>
            </MetaData>
           </GenericEffect>
          </Effects>
          <Attributes>
           <Attribute id="463" value="" name="ident"/>
          </Attributes>
          <ExtraData>
           <Entry key="ZoomPanBin">
            <ZoomPanBin id="464"  >
             <ZoomPanKeyframes>
             </ZoomPanKeyframes>
            </ZoomPanBin>
           </Entry>
          </ExtraData>
         </ImageTransition>
         <MetaData>
          <entry key="WinSubProjectDisplayName" val=""/>
         </MetaData>
        </UnifiedMedia>
        <UnifiedMedia id="465"  >
         <AMFile id="466" start="942" duration="133" scalar="1/1" mediaStart="456/1" mediaDuration="133/1" trackNumber="1" src="11" channelNumber="0,1" >
          <Parameters>
           <InterpolatingParam id="467" interp="linr"  time="0/1" value="1" leadInLength="0/1"  name="volume"/>
           <Parameter id="468"  name="captions"/>
          </Parameters>
          <Attributes>
           <Attribute id="469" value="" name="ident"/>
           <Attribute id="470" value="44100" name="sampleRate"/>
           <Attribute id="471" value="16" name="bitDepth"/>
           <Attribute id="472" value="1" name="gain"/>
           <Attribute id="473" value="0" name="mixToMono"/>
          </Attributes>
         </AMFile>
         <VMFile id="474" start="942" duration="133" scalar="1/1" mediaStart="456/1" mediaDuration="133/1" trackNumber="0" src="11" >
          <Transformer>
           <VectorParam id="475"  name="translation">
            <InterpolatingParam id="476" interp="linr"  time="-9999999/1" value="0" leadInLength="0/1"  />
            <InterpolatingParam id="477" interp="linr"  time="-9999999/1" value="0" leadInLength="0/1"  />
            <InterpolatingParam id="478" interp="linr"  time="-9999999/1" value="0" leadInLength="0/1"  />
           </VectorParam>
           <VectorParam id="479"  name="rotation">
            <InterpolatingParam id="480" interp="linr"  time="-9999999/1" value="0" leadInLength="0/1"  />
            <InterpolatingParam id="481" interp="linr"  time="-9999999/1" value="0" leadInLength="0/1"  />
            <InterpolatingParam id="482" interp="linr"  time="-9999999/1" value="0" leadInLength="0/1"  />
           </VectorParam>
           <VectorParam id="483"  name="shear">
            <InterpolatingParam id="484" interp="linr"  time="-9999999/1" value="0" leadInLength="0/1"  />
            <InterpolatingParam id="485" interp="linr"  time="-9999999/1" value="0" leadInLength="0/1"  />
            <InterpolatingParam id="486" interp="linr"  time="-9999999/1" value="0" leadInLength="0/1"  />
           </VectorParam>
           <VectorParam id="487"  name="scale">
            <InterpolatingParam id="488" interp="linr"  time="-9999999/1" value="1.0000000000000175" leadInLength="0/1"  />
            <InterpolatingParam id="489" interp="linr"  time="-9999999/1" value="1.0000000000000178" leadInLength="0/1"  />
            <InterpolatingParam id="490" interp="linr"  time="-9999999/1" value="1" leadInLength="0/1"  />
           </VectorParam>
           <VectorParam id="491"  name="anchor">
            <InterpolatingParam id="492" interp="linr"  time="0/1" value="0" leadInLength="0/1"  />
            <InterpolatingParam id="493" interp="linr"  time="0/1" value="0" leadInLength="0/1"  />
            <InterpolatingParam id="494" interp="linr"  time="0/1" value="0" leadInLength="0/1"  />
           </VectorParam>
          </Transformer>
          <Parameters>
           <VectorParam id="495"  name="sourceCrop">
            <InterpolatingParam id="496" interp="linr"  time="0/1" value="0" leadInLength="0/1"  />
            <InterpolatingParam id="497" interp="linr"  time="0/1" value="0" leadInLength="0/1"  />
            <InterpolatingParam id="498" interp="linr"  time="0/1" value="0" leadInLength="0/1"  />
            <InterpolatingParam id="499" interp="linr"  time="0/1" value="0" leadInLength="0/1"  />
           </VectorParam>
           <VectorParam id="500"  name="geometryCrop">
            <InterpolatingParam id="501" interp="linr"  time="-9999999/1" value="0" leadInLength="0/1"  />
            <InterpolatingParam id="502" interp="linr"  time="-9999999/1" value="0" leadInLength="0/1"  />
            <InterpolatingParam id="503" interp="linr"  time="-9999999/1" value="0" leadInLength="0/1"  />
            <InterpolatingParam id="504" interp="linr"  time="-9999999/1" value="0" leadInLength="0/1"  />
           </VectorParam>
           <InterpolatingParam id="505" interp="linr"  time="-9999999/1" value="1" leadInLength="0/1"  name="opacity"/>
          </Parameters>
          <Attributes>
           <Attribute id="506" value="" name="ident"/>
          </Attributes>
          <ExtraData>
           <Entry key="ZoomPanBin">
            <ZoomPanBin id="507"  >
             <ZoomPanKeyframes>
              <ZoomPanKeyframe id="508" timeRangeEnd="-9999999/1" timeRangeDuration="0/1" interpolaterName="linr"  />
             </ZoomPanKeyframes>
            </ZoomPanBin>
           </Entry>
          </ExtraData>
         </VMFile>
         <MetaData>
          <entry key="WinSubProjectDisplayName" val=""/>
         </MetaData>
        </UnifiedMedia>
        <UnifiedMedia id="509"  >
         <AudioTransition id="510" start="1075" duration="30" >
          <Parameters>
           <InterpolatingParam id="511" interp="linr"  time="0/1" value="1" leadInLength="0/1"  name="volume"/>
           <Parameter id="512"  name="captions"/>
          </Parameters>
          <Effects>
           <GenericEffect id="513" name = "AudioTransition" >
            <Parameters>
            <Parameter id="514"   name="audioEdgeModType">
             <Keyframes>
             <Keyframe id="515"  time="0/1" value="0" leadInLength="0/1"  />
             </Keyframes>
            </Parameter>
            <Parameter id="516"   name="audioTransitionType">
             <Keyframes>
             <Keyframe id="517"  time="0/1" value="" leadInLength="0/1"  />
             </Keyframes>
            </Parameter>
            </Parameters>
            <MetaData>
            </MetaData>
           </GenericEffect>
          </Effects>
          <Attributes>
           <Attribute id="518" value="" name="ident"/>
           <Attribute id="519" value="0" name="sampleRate"/>
           <Attribute id="520" value="0" name="bitDepth"/>
           <Attribute id="521" value="1" name="gain"/>
           <Attribute id="522" value="0" name="mixToMono"/>
          </Attributes>
         </AudioTransition>
         <ImageTransition id="523" start="1075" duration="30" >
          <Transformer>
           <VectorParam id="524"  name="translation">
            <InterpolatingParam id="525" interp="linr"  time="0/1" value="0" leadInLength="0/1"  />
            <InterpolatingParam id="526" interp="linr"  time="0/1" value="0" leadInLength="0/1"  />
            <InterpolatingParam id="527" interp="linr"  time="0/1" value="0" leadInLength="0/1"  />
           </VectorParam>
           <VectorParam id="528"  name="rotation">
            <InterpolatingParam id="529" interp="linr"  time="0/1" value="0" leadInLength="0/1"  />
            <InterpolatingParam id="530" interp="linr"  time="0/1" value="0" leadInLength="0/1"  />
            <InterpolatingParam id="531" interp="linr"  time="0/1" value="0" leadInLength="0/1"  />
           </VectorParam>
           <VectorParam id="532"  name="shear">
            <InterpolatingParam id="533" interp="linr"  time="0/1" value="0" leadInLength="0/1"  />
            <InterpolatingParam id="534" interp="linr"  time="0/1" value="0" leadInLength="0/1"  />
            <InterpolatingParam id="535" interp="linr"  time="0/1" value="0" leadInLength="0/1"  />
           </VectorParam>
           <VectorParam id="536"  name="scale">
            <InterpolatingParam id="537" interp="linr"  time="0/1" value="1" leadInLength="0/1"  />
            <InterpolatingParam id="538" interp="linr"  time="0/1" value="1" leadInLength="0/1"  />
            <InterpolatingParam id="539" interp="linr"  time="0/1" value="1" leadInLength="0/1"  />
           </VectorParam>
           <VectorParam id="540"  name="anchor">
            <InterpolatingParam id="541" interp="linr"  time="0/1" value="0" leadInLength="0/1"  />
            <InterpolatingParam id="542" interp="linr"  time="0/1" value="0" leadInLength="0/1"  />
            <InterpolatingParam id="543" interp="linr"  time="0/1" value="0" leadInLength="0/1"  />
           </VectorParam>
          </Transformer>
          <Parameters>
           <VectorParam id="544"  name="sourceCrop">
            <InterpolatingParam id="545" interp="linr"  time="0/1" value="0" leadInLength="0/1"  />
            <InterpolatingParam id="546" interp="linr"  time="0/1" value="0" leadInLength="0/1"  />
            <InterpolatingParam id="547" interp="linr"  time="0/1" value="0" leadInLength="0/1"  />
            <InterpolatingParam id="548" interp="linr"  time="0/1" value="0" leadInLength="0/1"  />
           </VectorParam>
           <VectorParam id="549"  name="geometryCrop">
            <InterpolatingParam id="550" interp="linr"  time="0/1" value="0" leadInLength="0/1"  />
            <InterpolatingParam id="551" interp="linr"  time="0/1" value="0" leadInLength="0/1"  />
            <InterpolatingParam id="552" interp="linr"  time="0/1" value="0" leadInLength="0/1"  />
            <InterpolatingParam id="553" interp="linr"  time="0/1" value="0" leadInLength="0/1"  />
           </VectorParam>
           <InterpolatingParam id="554" interp="linr"  time="0/1" value="1" leadInLength="0/1"  name="opacity"/>
          </Parameters>
          <Effects>
           <GenericEffect id="555" name = "VisualTransition" >
            <Parameters>
            <InterpolatingParam id="556" interp="linr"  time="0/1" value="1" leadInLength="0/1"   name="leftFramePercentage"/>
            <InterpolatingParam id="557" interp="linr"  time="0/1" value="1" leadInLength="0/1"   name="rightFramePercentage"/>
            <Parameter id="558"   name="visualEdgeModType">
             <Keyframes>
             <Keyframe id="559"  time="0/1" value="0" leadInLength="0/1"  />
             </Keyframes>
            </Parameter>
            <Parameter id="560"   name="visualTransitionType">
             <Keyframes>
             <Keyframe id="561"  time="0/1" value="Fade" leadInLength="0/1"  />
             </Keyframes>
            </Parameter>
            </Parameters>
            <MetaData>
            </MetaData>
           </GenericEffect>
          </Effects>
          <Attributes>
           <Attribute id="562" value="" name="ident"/>
          </Attributes>
          <ExtraData>
           <Entry key="ZoomPanBin">
            <ZoomPanBin id="563"  >
             <ZoomPanKeyframes>
             </ZoomPanKeyframes>
            </ZoomPanBin>
           </Entry>
          </ExtraData>
         </ImageTransition>
         <MetaData>
          <entry key="WinSubProjectDisplayName" val=""/>
         </MetaData>
        </UnifiedMedia>
        <UnifiedMedia id="564"  >
         <AMFile id="565" start="1105" duration="66" scalar="1/1" mediaStart="819/1" mediaDuration="66/1" trackNumber="1" src="11" channelNumber="0,1" >
          <Parameters>
           <InterpolatingParam id="566" interp="linr"  time="0/1" value="1" leadInLength="0/1"  name="volume"/>
           <Parameter id="567"  name="captions"/>
          </Parameters>
          <Attributes>
           <Attribute id="568" value="" name="ident"/>
           <Attribute id="569" value="44100" name="sampleRate"/>
           <Attribute id="570" value="16" name="bitDepth"/>
           <Attribute id="571" value="1" name="gain"/>
           <Attribute id="572" value="0" name="mixToMono"/>
          </Attributes>
         </AMFile>
         <VMFile id="573" start="1105" duration="66" scalar="1/1" mediaStart="819/1" mediaDuration="66/1" trackNumber="0" src="11" >
          <Transformer>
           <VectorParam id="574"  name="translation">
            <InterpolatingParam id="575" interp="linr"  time="-9999999/1" value="0" leadInLength="0/1"  />
            <InterpolatingParam id="576" interp="linr"  time="-9999999/1" value="0" leadInLength="0/1"  />
            <InterpolatingParam id="577" interp="linr"  time="-9999999/1" value="0" leadInLength="0/1"  />
           </VectorParam>
           <VectorParam id="578"  name="rotation">
            <InterpolatingParam id="579" interp="linr"  time="-9999999/1" value="0" leadInLength="0/1"  />
            <InterpolatingParam id="580" interp="linr"  time="-9999999/1" value="0" leadInLength="0/1"  />
            <InterpolatingParam id="581" interp="linr"  time="-9999999/1" value="0" leadInLength="0/1"  />
           </VectorParam>
           <VectorParam id="582"  name="shear">
            <InterpolatingParam id="583" interp="linr"  time="-9999999/1" value="0" leadInLength="0/1"  />
            <InterpolatingParam id="584" interp="linr"  time="-9999999/1" value="0" leadInLength="0/1"  />
            <InterpolatingParam id="585" interp="linr"  time="-9999999/1" value="0" leadInLength="0/1"  />
           </VectorParam>
           <VectorParam id="586"  name="scale">
            <InterpolatingParam id="587" interp="linr"  time="-9999999/1" value="1.0000000000000175" leadInLength="0/1"  />
            <InterpolatingParam id="588" interp="linr"  time="-9999999/1" value="1.0000000000000178" leadInLength="0/1"  />
            <InterpolatingParam id="589" interp="linr"  time="-9999999/1" value="1" leadInLength="0/1"  />
           </VectorParam>
           <VectorParam id="590"  name="anchor">
            <InterpolatingParam id="591" interp="linr"  time="0/1" value="0" leadInLength="0/1"  />
            <InterpolatingParam id="592" interp="linr"  time="0/1" value="0" leadInLength="0/1"  />
            <InterpolatingParam id="593" interp="linr"  time="0/1" value="0" leadInLength="0/1"  />
           </VectorParam>
          </Transformer>
          <Parameters>
           <VectorParam id="594"  name="sourceCrop">
            <InterpolatingParam id="595" interp="linr"  time="0/1" value="0" leadInLength="0/1"  />
            <InterpolatingParam id="596" interp="linr"  time="0/1" value="0" leadInLength="0/1"  />
            <InterpolatingParam id="597" interp="linr"  time="0/1" value="0" leadInLength="0/1"  />
            <InterpolatingParam id="598" interp="linr"  time="0/1" value="0" leadInLength="0/1"  />
           </VectorParam>
           <VectorParam id="599"  name="geometryCrop">
            <InterpolatingParam id="600" interp="linr"  time="-9999999/1" value="0" leadInLength="0/1"  />
            <InterpolatingParam id="601" interp="linr"  time="-9999999/1" value="0" leadInLength="0/1"  />
            <InterpolatingParam id="602" interp="linr"  time="-9999999/1" value="0" leadInLength="0/1"  />
            <InterpolatingParam id="603" interp="linr"  time="-9999999/1" value="0" leadInLength="0/1"  />
           </VectorParam>
           <InterpolatingParam id="604" interp="linr"  time="-9999999/1" value="1" leadInLength="0/1"  name="opacity"/>
          </Parameters>
          <Attributes>
           <Attribute id="605" value="" name="ident"/>
          </Attributes>
          <ExtraData>
           <Entry key="ZoomPanBin">
            <ZoomPanBin id="606"  >
             <ZoomPanKeyframes>
              <ZoomPanKeyframe id="607" timeRangeEnd="-9999999/1" timeRangeDuration="0/1" interpolaterName="linr"  />
             </ZoomPanKeyframes>
            </ZoomPanBin>
           </Entry>
          </ExtraData>
         </VMFile>
         <MetaData>
          <entry key="WinSubProjectDisplayName" val=""/>
         </MetaData>
        </UnifiedMedia>
        <UnifiedMedia id="608"  >
         <AudioTransition id="609" start="1171" duration="30" >
          <Parameters>
           <InterpolatingParam id="610" interp="linr"  time="0/1" value="1" leadInLength="0/1"  name="volume"/>
           <Parameter id="611"  name="captions"/>
          </Parameters>
          <Effects>
           <GenericEffect id="612" name = "AudioTransition" >
            <Parameters>
            <Parameter id="613"   name="audioEdgeModType">
             <Keyframes>
             <Keyframe id="614"  time="0/1" value="0" leadInLength="0/1"  />
             </Keyframes>
            </Parameter>
            <Parameter id="615"   name="audioTransitionType">
             <Keyframes>
             <Keyframe id="616"  time="0/1" value="" leadInLength="0/1"  />
             </Keyframes>
            </Parameter>
            </Parameters>
            <MetaData>
            </MetaData>
           </GenericEffect>
          </Effects>
          <Attributes>
           <Attribute id="617" value="" name="ident"/>
           <Attribute id="618" value="0" name="sampleRate"/>
           <Attribute id="619" value="0" name="bitDepth"/>
           <Attribute id="620" value="1" name="gain"/>
           <Attribute id="621" value="0" name="mixToMono"/>
          </Attributes>
         </AudioTransition>
         <ImageTransition id="622" start="1171" duration="30" >
          <Transformer>
           <VectorParam id="623"  name="translation">
            <InterpolatingParam id="624" interp="linr"  time="0/1" value="0" leadInLength="0/1"  />
            <InterpolatingParam id="625" interp="linr"  time="0/1" value="0" leadInLength="0/1"  />
            <InterpolatingParam id="626" interp="linr"  time="0/1" value="0" leadInLength="0/1"  />
           </VectorParam>
           <VectorParam id="627"  name="rotation">
            <InterpolatingParam id="628" interp="linr"  time="0/1" value="0" leadInLength="0/1"  />
            <InterpolatingParam id="629" interp="linr"  time="0/1" value="0" leadInLength="0/1"  />
            <InterpolatingParam id="630" interp="linr"  time="0/1" value="0" leadInLength="0/1"  />
           </VectorParam>
           <VectorParam id="631"  name="shear">
            <InterpolatingParam id="632" interp="linr"  time="0/1" value="0" leadInLength="0/1"  />
            <InterpolatingParam id="633" interp="linr"  time="0/1" value="0" leadInLength="0/1"  />
            <InterpolatingParam id="634" interp="linr"  time="0/1" value="0" leadInLength="0/1"  />
           </VectorParam>
           <VectorParam id="635"  name="scale">
            <InterpolatingParam id="636" interp="linr"  time="0/1" value="1" leadInLength="0/1"  />
            <InterpolatingParam id="637" interp="linr"  time="0/1" value="1" leadInLength="0/1"  />
            <InterpolatingParam id="638" interp="linr"  time="0/1" value="1" leadInLength="0/1"  />
           </VectorParam>
           <VectorParam id="639"  name="anchor">
            <InterpolatingParam id="640" interp="linr"  time="0/1" value="0" leadInLength="0/1"  />
            <InterpolatingParam id="641" interp="linr"  time="0/1" value="0" leadInLength="0/1"  />
            <InterpolatingParam id="642" interp="linr"  time="0/1" value="0" leadInLength="0/1"  />
           </VectorParam>
          </Transformer>
          <Parameters>
           <VectorParam id="643"  name="sourceCrop">
            <InterpolatingParam id="644" interp="linr"  time="0/1" value="0" leadInLength="0/1"  />
            <InterpolatingParam id="645" interp="linr"  time="0/1" value="0" leadInLength="0/1"  />
            <InterpolatingParam id="646" interp="linr"  time="0/1" value="0" leadInLength="0/1"  />
            <InterpolatingParam id="647" interp="linr"  time="0/1" value="0" leadInLength="0/1"  />
           </VectorParam>
           <VectorParam id="648"  name="geometryCrop">
            <InterpolatingParam id="649" interp="linr"  time="0/1" value="0" leadInLength="0/1"  />
            <InterpolatingParam id="650" interp="linr"  time="0/1" value="0" leadInLength="0/1"  />
            <InterpolatingParam id="651" interp="linr"  time="0/1" value="0" leadInLength="0/1"  />
            <InterpolatingParam id="652" interp="linr"  time="0/1" value="0" leadInLength="0/1"  />
           </VectorParam>
           <InterpolatingParam id="653" interp="linr"  time="0/1" value="1" leadInLength="0/1"  name="opacity"/>
          </Parameters>
          <Effects>
           <GenericEffect id="654" name = "VisualTransition" >
            <Parameters>
            <InterpolatingParam id="655" interp="linr"  time="0/1" value="1" leadInLength="0/1"   name="leftFramePercentage"/>
            <InterpolatingParam id="656" interp="linr"  time="0/1" value="1" leadInLength="0/1"   name="rightFramePercentage"/>
            <Parameter id="657"   name="visualEdgeModType">
             <Keyframes>
             <Keyframe id="658"  time="0/1" value="0" leadInLength="0/1"  />
             </Keyframes>
            </Parameter>
            <Parameter id="659"   name="visualTransitionType">
             <Keyframes>
             <Keyframe id="660"  time="0/1" value="Fade" leadInLength="0/1"  />
             </Keyframes>
            </Parameter>
            </Parameters>
            <MetaData>
            </MetaData>
           </GenericEffect>
          </Effects>
          <Attributes>
           <Attribute id="661" value="" name="ident"/>
          </Attributes>
          <ExtraData>
           <Entry key="ZoomPanBin">
            <ZoomPanBin id="662"  >
             <ZoomPanKeyframes>
             </ZoomPanKeyframes>
            </ZoomPanBin>
           </Entry>
          </ExtraData>
         </ImageTransition>
         <MetaData>
          <entry key="WinSubProjectDisplayName" val=""/>
         </MetaData>
        </UnifiedMedia>
        <UnifiedMedia id="663"  >
         <AMFile id="664" start="1201" duration="257" scalar="1/1" mediaStart="28/1" mediaDuration="257/1" trackNumber="1" src="5" channelNumber="0,1" >
          <Parameters>
           <InterpolatingParam id="665" interp="linr"  time="0/1" value="1" leadInLength="0/1"  name="volume"/>
           <Parameter id="666"  name="captions"/>
          </Parameters>
          <Attributes>
           <Attribute id="667" value="" name="ident"/>
           <Attribute id="668" value="44100" name="sampleRate"/>
           <Attribute id="669" value="16" name="bitDepth"/>
           <Attribute id="670" value="1" name="gain"/>
           <Attribute id="671" value="0" name="mixToMono"/>
          </Attributes>
         </AMFile>
         <VMFile id="672" start="1201" duration="257" scalar="1/1" mediaStart="28/1" mediaDuration="257/1" trackNumber="0" src="5" >
          <Transformer>
           <VectorParam id="673"  name="translation">
            <InterpolatingParam id="674" interp="linr"  time="-9999999/1" value="0" leadInLength="0/1"  />
            <InterpolatingParam id="675" interp="linr"  time="-9999999/1" value="0" leadInLength="0/1"  />
            <InterpolatingParam id="676" interp="linr"  time="-9999999/1" value="0" leadInLength="0/1"  />
           </VectorParam>
           <VectorParam id="677"  name="rotation">
            <InterpolatingParam id="678" interp="linr"  time="-9999999/1" value="0" leadInLength="0/1"  />
            <InterpolatingParam id="679" interp="linr"  time="-9999999/1" value="0" leadInLength="0/1"  />
            <InterpolatingParam id="680" interp="linr"  time="-9999999/1" value="0" leadInLength="0/1"  />
           </VectorParam>
           <VectorParam id="681"  name="shear">
            <InterpolatingParam id="682" interp="linr"  time="-9999999/1" value="0" leadInLength="0/1"  />
            <InterpolatingParam id="683" interp="linr"  time="-9999999/1" value="0" leadInLength="0/1"  />
            <InterpolatingParam id="684" interp="linr"  time="-9999999/1" value="0" leadInLength="0/1"  />
           </VectorParam>
           <VectorParam id="685"  name="scale">
            <InterpolatingParam id="686" interp="linr"  time="-9999999/1" value="0.59999999999999998" leadInLength="0/1"  />
            <InterpolatingParam id="687" interp="linr"  time="-9999999/1" value="0.59999999999999998" leadInLength="0/1"  />
            <InterpolatingParam id="688" interp="linr"  time="-9999999/1" value="1" leadInLength="0/1"  />
           </VectorParam>
           <VectorParam id="689"  name="anchor">
            <InterpolatingParam id="690" interp="linr"  time="0/1" value="0" leadInLength="0/1"  />
            <InterpolatingParam id="691" interp="linr"  time="0/1" value="0" leadInLength="0/1"  />
            <InterpolatingParam id="692" interp="linr"  time="0/1" value="0" leadInLength="0/1"  />
           </VectorParam>
          </Transformer>
          <Parameters>
           <VectorParam id="693"  name="sourceCrop">
            <InterpolatingParam id="694" interp="linr"  time="0/1" value="0" leadInLength="0/1"  />
            <InterpolatingParam id="695" interp="linr"  time="0/1" value="0" leadInLength="0/1"  />
            <InterpolatingParam id="696" interp="linr"  time="0/1" value="0" leadInLength="0/1"  />
            <InterpolatingParam id="697" interp="linr"  time="0/1" value="0" leadInLength="0/1"  />
           </VectorParam>
           <VectorParam id="698"  name="geometryCrop">
            <InterpolatingParam id="699" interp="linr"  time="-9999999/1" value="0" leadInLength="0/1"  />
            <InterpolatingParam id="700" interp="linr"  time="-9999999/1" value="0" leadInLength="0/1"  />
            <InterpolatingParam id="701" interp="linr"  time="-9999999/1" value="0" leadInLength="0/1"  />
            <InterpolatingParam id="702" interp="linr"  time="-9999999/1" value="0" leadInLength="0/1"  />
           </VectorParam>
           <InterpolatingParam id="703" interp="linr"  time="-9999999/1" value="1" leadInLength="0/1"  name="opacity"/>
          </Parameters>
          <Attributes>
           <Attribute id="704" value="" name="ident"/>
          </Attributes>
          <ExtraData>
           <Entry key="ZoomPanBin">
            <ZoomPanBin id="705"  >
             <ZoomPanKeyframes>
              <ZoomPanKeyframe id="706" timeRangeEnd="-9999999/1" timeRangeDuration="0/1" interpolaterName="linr"  />
             </ZoomPanKeyframes>
            </ZoomPanBin>
           </Entry>
          </ExtraData>
         </VMFile>
         <MetaData>
          <entry key="WinSubProjectDisplayName" val=""/>
         </MetaData>
        </UnifiedMedia>
        <UnifiedMedia id="707"  >
         <AudioTransition id="708" start="1458" duration="30" >
          <Parameters>
           <InterpolatingParam id="709" interp="linr"  time="0/1" value="1" leadInLength="0/1"  name="volume"/>
           <Parameter id="710"  name="captions"/>
          </Parameters>
          <Effects>
           <GenericEffect id="711" name = "AudioTransition" >
            <Parameters>
            <Parameter id="712"   name="audioEdgeModType">
             <Keyframes>
             <Keyframe id="713"  time="0/1" value="0" leadInLength="0/1"  />
             </Keyframes>
            </Parameter>
            <Parameter id="714"   name="audioTransitionType">
             <Keyframes>
             <Keyframe id="715"  time="0/1" value="" leadInLength="0/1"  />
             </Keyframes>
            </Parameter>
            </Parameters>
            <MetaData>
            </MetaData>
           </GenericEffect>
          </Effects>
          <Attributes>
           <Attribute id="716" value="" name="ident"/>
           <Attribute id="717" value="0" name="sampleRate"/>
           <Attribute id="718" value="0" name="bitDepth"/>
           <Attribute id="719" value="1" name="gain"/>
           <Attribute id="720" value="0" name="mixToMono"/>
          </Attributes>
         </AudioTransition>
         <ImageTransition id="721" start="1458" duration="30" >
          <Transformer>
           <VectorParam id="722"  name="translation">
            <InterpolatingParam id="723" interp="linr"  time="0/1" value="0" leadInLength="0/1"  />
            <InterpolatingParam id="724" interp="linr"  time="0/1" value="0" leadInLength="0/1"  />
            <InterpolatingParam id="725" interp="linr"  time="0/1" value="0" leadInLength="0/1"  />
           </VectorParam>
           <VectorParam id="726"  name="rotation">
            <InterpolatingParam id="727" interp="linr"  time="0/1" value="0" leadInLength="0/1"  />
            <InterpolatingParam id="728" interp="linr"  time="0/1" value="0" leadInLength="0/1"  />
            <InterpolatingParam id="729" interp="linr"  time="0/1" value="0" leadInLength="0/1"  />
           </VectorParam>
           <VectorParam id="730"  name="shear">
            <InterpolatingParam id="731" interp="linr"  time="0/1" value="0" leadInLength="0/1"  />
            <InterpolatingParam id="732" interp="linr"  time="0/1" value="0" leadInLength="0/1"  />
            <InterpolatingParam id="733" interp="linr"  time="0/1" value="0" leadInLength="0/1"  />
           </VectorParam>
           <VectorParam id="734"  name="scale">
            <InterpolatingParam id="735" interp="linr"  time="0/1" value="1" leadInLength="0/1"  />
            <InterpolatingParam id="736" interp="linr"  time="0/1" value="1" leadInLength="0/1"  />
            <InterpolatingParam id="737" interp="linr"  time="0/1" value="1" leadInLength="0/1"  />
           </VectorParam>
           <VectorParam id="738"  name="anchor">
            <InterpolatingParam id="739" interp="linr"  time="0/1" value="0" leadInLength="0/1"  />
            <InterpolatingParam id="740" interp="linr"  time="0/1" value="0" leadInLength="0/1"  />
            <InterpolatingParam id="741" interp="linr"  time="0/1" value="0" leadInLength="0/1"  />
           </VectorParam>
          </Transformer>
          <Parameters>
           <VectorParam id="742"  name="sourceCrop">
            <InterpolatingParam id="743" interp="linr"  time="0/1" value="0" leadInLength="0/1"  />
            <InterpolatingParam id="744" interp="linr"  time="0/1" value="0" leadInLength="0/1"  />
            <InterpolatingParam id="745" interp="linr"  time="0/1" value="0" leadInLength="0/1"  />
            <InterpolatingParam id="746" interp="linr"  time="0/1" value="0" leadInLength="0/1"  />
           </VectorParam>
           <VectorParam id="747"  name="geometryCrop">
            <InterpolatingParam id="748" interp="linr"  time="0/1" value="0" leadInLength="0/1"  />
            <InterpolatingParam id="749" interp="linr"  time="0/1" value="0" leadInLength="0/1"  />
            <InterpolatingParam id="750" interp="linr"  time="0/1" value="0" leadInLength="0/1"  />
            <InterpolatingParam id="751" interp="linr"  time="0/1" value="0" leadInLength="0/1"  />
           </VectorParam>
           <InterpolatingParam id="752" interp="linr"  time="0/1" value="1" leadInLength="0/1"  name="opacity"/>
          </Parameters>
          <Effects>
           <GenericEffect id="753" name = "VisualTransition" >
            <Parameters>
            <InterpolatingParam id="754" interp="linr"  time="0/1" value="1" leadInLength="0/1"   name="leftFramePercentage"/>
            <InterpolatingParam id="755" interp="linr"  time="0/1" value="1" leadInLength="0/1"   name="rightFramePercentage"/>
            <Parameter id="756"   name="visualEdgeModType">
             <Keyframes>
             <Keyframe id="757"  time="0/1" value="0" leadInLength="0/1"  />
             </Keyframes>
            </Parameter>
            <Parameter id="758"   name="visualTransitionType">
             <Keyframes>
             <Keyframe id="759"  time="0/1" value="Fade" leadInLength="0/1"  />
             </Keyframes>
            </Parameter>
            </Parameters>
            <MetaData>
            </MetaData>
           </GenericEffect>
          </Effects>
          <Attributes>
           <Attribute id="760" value="" name="ident"/>
          </Attributes>
          <ExtraData>
           <Entry key="ZoomPanBin">
            <ZoomPanBin id="761"  >
             <ZoomPanKeyframes>
             </ZoomPanKeyframes>
            </ZoomPanBin>
           </Entry>
          </ExtraData>
         </ImageTransition>
         <MetaData>
          <entry key="WinSubProjectDisplayName" val=""/>
         </MetaData>
        </UnifiedMedia>
        <UnifiedMedia id="762"  >
         <AMFile id="763" start="1488" duration="18" scalar="1/1" mediaStart="85/1" mediaDuration="18/1" trackNumber="1" src="7" channelNumber="0,1" >
          <Parameters>
           <InterpolatingParam id="764" interp="linr"  time="0/1" value="1" leadInLength="0/1"  name="volume"/>
           <Parameter id="765"  name="captions"/>
          </Parameters>
          <Attributes>
           <Attribute id="766" value="" name="ident"/>
           <Attribute id="767" value="44100" name="sampleRate"/>
           <Attribute id="768" value="16" name="bitDepth"/>
           <Attribute id="769" value="1" name="gain"/>
           <Attribute id="770" value="0" name="mixToMono"/>
          </Attributes>
         </AMFile>
         <VMFile id="771" start="1488" duration="18" scalar="1/1" mediaStart="85/1" mediaDuration="18/1" trackNumber="0" src="7" >
          <Transformer>
           <VectorParam id="772"  name="translation">
            <InterpolatingParam id="773" interp="linr"  time="-9999999/1" value="0" leadInLength="0/1"  />
            <InterpolatingParam id="774" interp="linr"  time="-9999999/1" value="0" leadInLength="0/1"  />
            <InterpolatingParam id="775" interp="linr"  time="-9999999/1" value="0" leadInLength="0/1"  />
           </VectorParam>
           <VectorParam id="776"  name="rotation">
            <InterpolatingParam id="777" interp="linr"  time="-9999999/1" value="0" leadInLength="0/1"  />
            <InterpolatingParam id="778" interp="linr"  time="-9999999/1" value="0" leadInLength="0/1"  />
            <InterpolatingParam id="779" interp="linr"  time="-9999999/1" value="0" leadInLength="0/1"  />
           </VectorParam>
           <VectorParam id="780"  name="shear">
            <InterpolatingParam id="781" interp="linr"  time="-9999999/1" value="0" leadInLength="0/1"  />
            <InterpolatingParam id="782" interp="linr"  time="-9999999/1" value="0" leadInLength="0/1"  />
            <InterpolatingParam id="783" interp="linr"  time="-9999999/1" value="0" leadInLength="0/1"  />
           </VectorParam>
           <VectorParam id="784"  name="scale">
            <InterpolatingParam id="785" interp="linr"  time="-9999999/1" value="0.59999999999999998" leadInLength="0/1"  />
            <InterpolatingParam id="786" interp="linr"  time="-9999999/1" value="0.59999999999999998" leadInLength="0/1"  />
            <InterpolatingParam id="787" interp="linr"  time="-9999999/1" value="1" leadInLength="0/1"  />
           </VectorParam>
           <VectorParam id="788"  name="anchor">
            <InterpolatingParam id="789" interp="linr"  time="0/1" value="0" leadInLength="0/1"  />
            <InterpolatingParam id="790" interp="linr"  time="0/1" value="0" leadInLength="0/1"  />
            <InterpolatingParam id="791" interp="linr"  time="0/1" value="0" leadInLength="0/1"  />
           </VectorParam>
          </Transformer>
          <Parameters>
           <VectorParam id="792"  name="sourceCrop">
            <InterpolatingParam id="793" interp="linr"  time="0/1" value="0" leadInLength="0/1"  />
            <InterpolatingParam id="794" interp="linr"  time="0/1" value="0" leadInLength="0/1"  />
            <InterpolatingParam id="795" interp="linr"  time="0/1" value="0" leadInLength="0/1"  />
            <InterpolatingParam id="796" interp="linr"  time="0/1" value="0" leadInLength="0/1"  />
           </VectorParam>
           <VectorParam id="797"  name="geometryCrop">
            <InterpolatingParam id="798" interp="linr"  time="-9999999/1" value="0" leadInLength="0/1"  />
            <InterpolatingParam id="799" interp="linr"  time="-9999999/1" value="0" leadInLength="0/1"  />
            <InterpolatingParam id="800" interp="linr"  time="-9999999/1" value="0" leadInLength="0/1"  />
            <InterpolatingParam id="801" interp="linr"  time="-9999999/1" value="0" leadInLength="0/1"  />
           </VectorParam>
           <InterpolatingParam id="802" interp="linr"  time="-9999999/1" value="1" leadInLength="0/1"  name="opacity"/>
          </Parameters>
          <Attributes>
           <Attribute id="803" value="" name="ident"/>
          </Attributes>
          <ExtraData>
           <Entry key="ZoomPanBin">
            <ZoomPanBin id="804"  >
             <ZoomPanKeyframes>
              <ZoomPanKeyframe id="805" timeRangeEnd="-9999999/1" timeRangeDuration="0/1" interpolaterName="linr"  />
             </ZoomPanKeyframes>
            </ZoomPanBin>
           </Entry>
          </ExtraData>
         </VMFile>
         <MetaData>
          <entry key="WinSubProjectDisplayName" val=""/>
         </MetaData>
        </UnifiedMedia>
        <UnifiedMedia id="806"  >
         <AudioTransition id="807" start="1506" duration="30" >
          <Parameters>
           <InterpolatingParam id="808" interp="linr"  time="0/1" value="1" leadInLength="0/1"  name="volume"/>
           <Parameter id="809"  name="captions"/>
          </Parameters>
          <Effects>
           <GenericEffect id="810" name = "AudioTransition" >
            <Parameters>
            <Parameter id="811"   name="audioEdgeModType">
             <Keyframes>
             <Keyframe id="812"  time="0/1" value="0" leadInLength="0/1"  />
             </Keyframes>
            </Parameter>
            <Parameter id="813"   name="audioTransitionType">
             <Keyframes>
             <Keyframe id="814"  time="0/1" value="" leadInLength="0/1"  />
             </Keyframes>
            </Parameter>
            </Parameters>
            <MetaData>
            </MetaData>
           </GenericEffect>
          </Effects>
          <Attributes>
           <Attribute id="815" value="" name="ident"/>
           <Attribute id="816" value="0" name="sampleRate"/>
           <Attribute id="817" value="0" name="bitDepth"/>
           <Attribute id="818" value="1" name="gain"/>
           <Attribute id="819" value="0" name="mixToMono"/>
          </Attributes>
         </AudioTransition>
         <ImageTransition id="820" start="1506" duration="30" >
          <Transformer>
           <VectorParam id="821"  name="translation">
            <InterpolatingParam id="822" interp="linr"  time="0/1" value="0" leadInLength="0/1"  />
            <InterpolatingParam id="823" interp="linr"  time="0/1" value="0" leadInLength="0/1"  />
            <InterpolatingParam id="824" interp="linr"  time="0/1" value="0" leadInLength="0/1"  />
           </VectorParam>
           <VectorParam id="825"  name="rotation">
            <InterpolatingParam id="826" interp="linr"  time="0/1" value="0" leadInLength="0/1"  />
            <InterpolatingParam id="827" interp="linr"  time="0/1" value="0" leadInLength="0/1"  />
            <InterpolatingParam id="828" interp="linr"  time="0/1" value="0" leadInLength="0/1"  />
           </VectorParam>
           <VectorParam id="829"  name="shear">
            <InterpolatingParam id="830" interp="linr"  time="0/1" value="0" leadInLength="0/1"  />
            <InterpolatingParam id="831" interp="linr"  time="0/1" value="0" leadInLength="0/1"  />
            <InterpolatingParam id="832" interp="linr"  time="0/1" value="0" leadInLength="0/1"  />
           </VectorParam>
           <VectorParam id="833"  name="scale">
            <InterpolatingParam id="834" interp="linr"  time="0/1" value="1" leadInLength="0/1"  />
            <InterpolatingParam id="835" interp="linr"  time="0/1" value="1" leadInLength="0/1"  />
            <InterpolatingParam id="836" interp="linr"  time="0/1" value="1" leadInLength="0/1"  />
           </VectorParam>
           <VectorParam id="837"  name="anchor">
            <InterpolatingParam id="838" interp="linr"  time="0/1" value="0" leadInLength="0/1"  />
            <InterpolatingParam id="839" interp="linr"  time="0/1" value="0" leadInLength="0/1"  />
            <InterpolatingParam id="840" interp="linr"  time="0/1" value="0" leadInLength="0/1"  />
           </VectorParam>
          </Transformer>
          <Parameters>
           <VectorParam id="841"  name="sourceCrop">
            <InterpolatingParam id="842" interp="linr"  time="0/1" value="0" leadInLength="0/1"  />
            <InterpolatingParam id="843" interp="linr"  time="0/1" value="0" leadInLength="0/1"  />
            <InterpolatingParam id="844" interp="linr"  time="0/1" value="0" leadInLength="0/1"  />
            <InterpolatingParam id="845" interp="linr"  time="0/1" value="0" leadInLength="0/1"  />
           </VectorParam>
           <VectorParam id="846"  name="geometryCrop">
            <InterpolatingParam id="847" interp="linr"  time="0/1" value="0" leadInLength="0/1"  />
            <InterpolatingParam id="848" interp="linr"  time="0/1" value="0" leadInLength="0/1"  />
            <InterpolatingParam id="849" interp="linr"  time="0/1" value="0" leadInLength="0/1"  />
            <InterpolatingParam id="850" interp="linr"  time="0/1" value="0" leadInLength="0/1"  />
           </VectorParam>
           <InterpolatingParam id="851" interp="linr"  time="0/1" value="1" leadInLength="0/1"  name="opacity"/>
          </Parameters>
          <Effects>
           <GenericEffect id="852" name = "VisualTransition" >
            <Parameters>
            <InterpolatingParam id="853" interp="linr"  time="0/1" value="1" leadInLength="0/1"   name="leftFramePercentage"/>
            <InterpolatingParam id="854" interp="linr"  time="0/1" value="1" leadInLength="0/1"   name="rightFramePercentage"/>
            <Parameter id="855"   name="visualEdgeModType">
             <Keyframes>
             <Keyframe id="856"  time="0/1" value="0" leadInLength="0/1"  />
             </Keyframes>
            </Parameter>
            <Parameter id="857"   name="visualTransitionType">
             <Keyframes>
             <Keyframe id="858"  time="0/1" value="Fade" leadInLength="0/1"  />
             </Keyframes>
            </Parameter>
            </Parameters>
            <MetaData>
            </MetaData>
           </GenericEffect>
          </Effects>
          <Attributes>
           <Attribute id="859" value="" name="ident"/>
          </Attributes>
          <ExtraData>
           <Entry key="ZoomPanBin">
            <ZoomPanBin id="860"  >
             <ZoomPanKeyframes>
             </ZoomPanKeyframes>
            </ZoomPanBin>
           </Entry>
          </ExtraData>
         </ImageTransition>
         <MetaData>
          <entry key="WinSubProjectDisplayName" val=""/>
         </MetaData>
        </UnifiedMedia>
        <UnifiedMedia id="861"  >
         <AMFile id="862" start="1536" duration="138" scalar="1/1" mediaStart="161/1" mediaDuration="138/1" trackNumber="1" src="7" channelNumber="0,1" >
          <Parameters>
           <InterpolatingParam id="863" interp="linr"  time="0/1" value="1" leadInLength="0/1"  name="volume"/>
           <Parameter id="864"  name="captions"/>
          </Parameters>
          <Attributes>
           <Attribute id="865" value="" name="ident"/>
           <Attribute id="866" value="44100" name="sampleRate"/>
           <Attribute id="867" value="16" name="bitDepth"/>
           <Attribute id="868" value="1" name="gain"/>
           <Attribute id="869" value="0" name="mixToMono"/>
          </Attributes>
         </AMFile>
         <VMFile id="870" start="1536" duration="138" scalar="1/1" mediaStart="161/1" mediaDuration="138/1" trackNumber="0" src="7" >
          <Transformer>
           <VectorParam id="871"  name="translation">
            <InterpolatingParam id="872" interp="linr"  time="-9999999/1" value="0" leadInLength="0/1"  />
            <InterpolatingParam id="873" interp="linr"  time="-9999999/1" value="0" leadInLength="0/1"  />
            <InterpolatingParam id="874" interp="linr"  time="-9999999/1" value="0" leadInLength="0/1"  />
           </VectorParam>
           <VectorParam id="875"  name="rotation">
            <InterpolatingParam id="876" interp="linr"  time="-9999999/1" value="0" leadInLength="0/1"  />
            <InterpolatingParam id="877" interp="linr"  time="-9999999/1" value="0" leadInLength="0/1"  />
            <InterpolatingParam id="878" interp="linr"  time="-9999999/1" value="0" leadInLength="0/1"  />
           </VectorParam>
           <VectorParam id="879"  name="shear">
            <InterpolatingParam id="880" interp="linr"  time="-9999999/1" value="0" leadInLength="0/1"  />
            <InterpolatingParam id="881" interp="linr"  time="-9999999/1" value="0" leadInLength="0/1"  />
            <InterpolatingParam id="882" interp="linr"  time="-9999999/1" value="0" leadInLength="0/1"  />
           </VectorParam>
           <VectorParam id="883"  name="scale">
            <InterpolatingParam id="884" interp="linr"  time="-9999999/1" value="0.59999999999999998" leadInLength="0/1"  />
            <InterpolatingParam id="885" interp="linr"  time="-9999999/1" value="0.59999999999999998" leadInLength="0/1"  />
            <InterpolatingParam id="886" interp="linr"  time="-9999999/1" value="1" leadInLength="0/1"  />
           </VectorParam>
           <VectorParam id="887"  name="anchor">
            <InterpolatingParam id="888" interp="linr"  time="0/1" value="0" leadInLength="0/1"  />
            <InterpolatingParam id="889" interp="linr"  time="0/1" value="0" leadInLength="0/1"  />
            <InterpolatingParam id="890" interp="linr"  time="0/1" value="0" leadInLength="0/1"  />
           </VectorParam>
          </Transformer>
          <Parameters>
           <VectorParam id="891"  name="sourceCrop">
            <InterpolatingParam id="892" interp="linr"  time="0/1" value="0" leadInLength="0/1"  />
            <InterpolatingParam id="893" interp="linr"  time="0/1" value="0" leadInLength="0/1"  />
            <InterpolatingParam id="894" interp="linr"  time="0/1" value="0" leadInLength="0/1"  />
            <InterpolatingParam id="895" interp="linr"  time="0/1" value="0" leadInLength="0/1"  />
           </VectorParam>
           <VectorParam id="896"  name="geometryCrop">
            <InterpolatingParam id="897" interp="linr"  time="-9999999/1" value="0" leadInLength="0/1"  />
            <InterpolatingParam id="898" interp="linr"  time="-9999999/1" value="0" leadInLength="0/1"  />
            <InterpolatingParam id="899" interp="linr"  time="-9999999/1" value="0" leadInLength="0/1"  />
            <InterpolatingParam id="900" interp="linr"  time="-9999999/1" value="0" leadInLength="0/1"  />
           </VectorParam>
           <InterpolatingParam id="901" interp="linr"  time="-9999999/1" value="1" leadInLength="0/1"  name="opacity"/>
          </Parameters>
          <Attributes>
           <Attribute id="902" value="" name="ident"/>
          </Attributes>
          <ExtraData>
           <Entry key="ZoomPanBin">
            <ZoomPanBin id="903"  >
             <ZoomPanKeyframes>
              <ZoomPanKeyframe id="904" timeRangeEnd="-9999999/1" timeRangeDuration="0/1" interpolaterName="linr"  />
             </ZoomPanKeyframes>
            </ZoomPanBin>
           </Entry>
          </ExtraData>
         </VMFile>
         <MetaData>
          <entry key="WinSubProjectDisplayName" val=""/>
         </MetaData>
        </UnifiedMedia>
        <UnifiedMedia id="905"  >
         <AudioTransition id="906" start="1674" duration="30" >
          <Parameters>
           <InterpolatingParam id="907" interp="linr"  time="0/1" value="1" leadInLength="0/1"  name="volume"/>
           <Parameter id="908"  name="captions"/>
          </Parameters>
          <Effects>
           <GenericEffect id="909" name = "AudioTransition" >
            <Parameters>
            <Parameter id="910"   name="audioEdgeModType">
             <Keyframes>
             <Keyframe id="911"  time="0/1" value="0" leadInLength="0/1"  />
             </Keyframes>
            </Parameter>
            <Parameter id="912"   name="audioTransitionType">
             <Keyframes>
             <Keyframe id="913"  time="0/1" value="" leadInLength="0/1"  />
             </Keyframes>
            </Parameter>
            </Parameters>
            <MetaData>
            </MetaData>
           </GenericEffect>
          </Effects>
          <Attributes>
           <Attribute id="914" value="" name="ident"/>
           <Attribute id="915" value="0" name="sampleRate"/>
           <Attribute id="916" value="0" name="bitDepth"/>
           <Attribute id="917" value="1" name="gain"/>
           <Attribute id="918" value="0" name="mixToMono"/>
          </Attributes>
         </AudioTransition>
         <ImageTransition id="919" start="1674" duration="30" >
          <Transformer>
           <VectorParam id="920"  name="translation">
            <InterpolatingParam id="921" interp="linr"  time="0/1" value="0" leadInLength="0/1"  />
            <InterpolatingParam id="922" interp="linr"  time="0/1" value="0" leadInLength="0/1"  />
            <InterpolatingParam id="923" interp="linr"  time="0/1" value="0" leadInLength="0/1"  />
           </VectorParam>
           <VectorParam id="924"  name="rotation">
            <InterpolatingParam id="925" interp="linr"  time="0/1" value="0" leadInLength="0/1"  />
            <InterpolatingParam id="926" interp="linr"  time="0/1" value="0" leadInLength="0/1"  />
            <InterpolatingParam id="927" interp="linr"  time="0/1" value="0" leadInLength="0/1"  />
           </VectorParam>
           <VectorParam id="928"  name="shear">
            <InterpolatingParam id="929" interp="linr"  time="0/1" value="0" leadInLength="0/1"  />
            <InterpolatingParam id="930" interp="linr"  time="0/1" value="0" leadInLength="0/1"  />
            <InterpolatingParam id="931" interp="linr"  time="0/1" value="0" leadInLength="0/1"  />
           </VectorParam>
           <VectorParam id="932"  name="scale">
            <InterpolatingParam id="933" interp="linr"  time="0/1" value="1" leadInLength="0/1"  />
            <InterpolatingParam id="934" interp="linr"  time="0/1" value="1" leadInLength="0/1"  />
            <InterpolatingParam id="935" interp="linr"  time="0/1" value="1" leadInLength="0/1"  />
           </VectorParam>
           <VectorParam id="936"  name="anchor">
            <InterpolatingParam id="937" interp="linr"  time="0/1" value="0" leadInLength="0/1"  />
            <InterpolatingParam id="938" interp="linr"  time="0/1" value="0" leadInLength="0/1"  />
            <InterpolatingParam id="939" interp="linr"  time="0/1" value="0" leadInLength="0/1"  />
           </VectorParam>
          </Transformer>
          <Parameters>
           <VectorParam id="940"  name="sourceCrop">
            <InterpolatingParam id="941" interp="linr"  time="0/1" value="0" leadInLength="0/1"  />
            <InterpolatingParam id="942" interp="linr"  time="0/1" value="0" leadInLength="0/1"  />
            <InterpolatingParam id="943" interp="linr"  time="0/1" value="0" leadInLength="0/1"  />
            <InterpolatingParam id="944" interp="linr"  time="0/1" value="0" leadInLength="0/1"  />
           </VectorParam>
           <VectorParam id="945"  name="geometryCrop">
            <InterpolatingParam id="946" interp="linr"  time="0/1" value="0" leadInLength="0/1"  />
            <InterpolatingParam id="947" interp="linr"  time="0/1" value="0" leadInLength="0/1"  />
            <InterpolatingParam id="948" interp="linr"  time="0/1" value="0" leadInLength="0/1"  />
            <InterpolatingParam id="949" interp="linr"  time="0/1" value="0" leadInLength="0/1"  />
           </VectorParam>
           <InterpolatingParam id="950" interp="linr"  time="0/1" value="1" leadInLength="0/1"  name="opacity"/>
          </Parameters>
          <Effects>
           <GenericEffect id="951" name = "VisualTransition" >
            <Parameters>
            <InterpolatingParam id="952" interp="linr"  time="0/1" value="1" leadInLength="0/1"   name="leftFramePercentage"/>
            <InterpolatingParam id="953" interp="linr"  time="0/1" value="1" leadInLength="0/1"   name="rightFramePercentage"/>
            <Parameter id="954"   name="visualEdgeModType">
             <Keyframes>
             <Keyframe id="955"  time="0/1" value="0" leadInLength="0/1"  />
             </Keyframes>
            </Parameter>
            <Parameter id="956"   name="visualTransitionType">
             <Keyframes>
             <Keyframe id="957"  time="0/1" value="Fade" leadInLength="0/1"  />
             </Keyframes>
            </Parameter>
            </Parameters>
            <MetaData>
            </MetaData>
           </GenericEffect>
          </Effects>
          <Attributes>
           <Attribute id="958" value="" name="ident"/>
          </Attributes>
          <ExtraData>
           <Entry key="ZoomPanBin">
            <ZoomPanBin id="959"  >
             <ZoomPanKeyframes>
             </ZoomPanKeyframes>
            </ZoomPanBin>
           </Entry>
          </ExtraData>
         </ImageTransition>
         <MetaData>
          <entry key="WinSubProjectDisplayName" val=""/>
         </MetaData>
        </UnifiedMedia>
        <UnifiedMedia id="960"  >
         <AMFile id="961" start="1704" duration="183" scalar="1/1" mediaStart="15/1" mediaDuration="183/1" trackNumber="1" src="8" channelNumber="0,1" >
          <Parameters>
           <InterpolatingParam id="962" interp="linr"  time="0/1" value="1" leadInLength="0/1"  name="volume"/>
           <Parameter id="963"  name="captions"/>
          </Parameters>
          <Attributes>
           <Attribute id="964" value="" name="ident"/>
           <Attribute id="965" value="44100" name="sampleRate"/>
           <Attribute id="966" value="16" name="bitDepth"/>
           <Attribute id="967" value="1" name="gain"/>
           <Attribute id="968" value="0" name="mixToMono"/>
          </Attributes>
         </AMFile>
         <VMFile id="969" start="1704" duration="183" scalar="1/1" mediaStart="15/1" mediaDuration="183/1" trackNumber="0" src="8" >
          <Transformer>
           <VectorParam id="970"  name="translation">
            <InterpolatingParam id="971" interp="linr"  time="-9999999/1" value="0" leadInLength="0/1"  />
            <InterpolatingParam id="972" interp="linr"  time="-9999999/1" value="0" leadInLength="0/1"  />
            <InterpolatingParam id="973" interp="linr"  time="-9999999/1" value="0" leadInLength="0/1"  />
           </VectorParam>
           <VectorParam id="974"  name="rotation">
            <InterpolatingParam id="975" interp="linr"  time="-9999999/1" value="0" leadInLength="0/1"  />
            <InterpolatingParam id="976" interp="linr"  time="-9999999/1" value="0" leadInLength="0/1"  />
            <InterpolatingParam id="977" interp="linr"  time="-9999999/1" value="0" leadInLength="0/1"  />
           </VectorParam>
           <VectorParam id="978"  name="shear">
            <InterpolatingParam id="979" interp="linr"  time="-9999999/1" value="0" leadInLength="0/1"  />
            <InterpolatingParam id="980" interp="linr"  time="-9999999/1" value="0" leadInLength="0/1"  />
            <InterpolatingParam id="981" interp="linr"  time="-9999999/1" value="0" leadInLength="0/1"  />
           </VectorParam>
           <VectorParam id="982"  name="scale">
            <InterpolatingParam id="983" interp="linr"  time="-9999999/1" value="0.59999999999999998" leadInLength="0/1"  />
            <InterpolatingParam id="984" interp="linr"  time="-9999999/1" value="0.59999999999999998" leadInLength="0/1"  />
            <InterpolatingParam id="985" interp="linr"  time="-9999999/1" value="1" leadInLength="0/1"  />
           </VectorParam>
           <VectorParam id="986"  name="anchor">
            <InterpolatingParam id="987" interp="linr"  time="0/1" value="0" leadInLength="0/1"  />
            <InterpolatingParam id="988" interp="linr"  time="0/1" value="0" leadInLength="0/1"  />
            <InterpolatingParam id="989" interp="linr"  time="0/1" value="0" leadInLength="0/1"  />
           </VectorParam>
          </Transformer>
          <Parameters>
           <VectorParam id="990"  name="sourceCrop">
            <InterpolatingParam id="991" interp="linr"  time="0/1" value="0" leadInLength="0/1"  />
            <InterpolatingParam id="992" interp="linr"  time="0/1" value="0" leadInLength="0/1"  />
            <InterpolatingParam id="993" interp="linr"  time="0/1" value="0" leadInLength="0/1"  />
            <InterpolatingParam id="994" interp="linr"  time="0/1" value="0" leadInLength="0/1"  />
           </VectorParam>
           <VectorParam id="995"  name="geometryCrop">
            <InterpolatingParam id="996" interp="linr"  time="-9999999/1" value="0" leadInLength="0/1"  />
            <InterpolatingParam id="997" interp="linr"  time="-9999999/1" value="0" leadInLength="0/1"  />
            <InterpolatingParam id="998" interp="linr"  time="-9999999/1" value="0" leadInLength="0/1"  />
            <InterpolatingParam id="999" interp="linr"  time="-9999999/1" value="0" leadInLength="0/1"  />
           </VectorParam>
           <InterpolatingParam id="1000" interp="linr"  time="-9999999/1" value="1" leadInLength="0/1"  name="opacity"/>
          </Parameters>
          <Attributes>
           <Attribute id="1001" value="" name="ident"/>
          </Attributes>
          <ExtraData>
           <Entry key="ZoomPanBin">
            <ZoomPanBin id="1002"  >
             <ZoomPanKeyframes>
              <ZoomPanKeyframe id="1003" timeRangeEnd="-9999999/1" timeRangeDuration="0/1" interpolaterName="linr"  />
             </ZoomPanKeyframes>
            </ZoomPanBin>
           </Entry>
          </ExtraData>
         </VMFile>
         <MetaData>
          <entry key="WinSubProjectDisplayName" val=""/>
         </MetaData>
        </UnifiedMedia>
        <UnifiedMedia id="1004"  >
         <AudioTransition id="1005" start="1887" duration="30" >
          <Parameters>
           <InterpolatingParam id="1006" interp="linr"  time="0/1" value="1" leadInLength="0/1"  name="volume"/>
           <Parameter id="1007"  name="captions"/>
          </Parameters>
          <Effects>
           <GenericEffect id="1008" name = "AudioTransition" >
            <Parameters>
            <Parameter id="1009"   name="audioEdgeModType">
             <Keyframes>
             <Keyframe id="1010"  time="0/1" value="0" leadInLength="0/1"  />
             </Keyframes>
            </Parameter>
            <Parameter id="1011"   name="audioTransitionType">
             <Keyframes>
             <Keyframe id="1012"  time="0/1" value="" leadInLength="0/1"  />
             </Keyframes>
            </Parameter>
            </Parameters>
            <MetaData>
            </MetaData>
           </GenericEffect>
          </Effects>
          <Attributes>
           <Attribute id="1013" value="" name="ident"/>
           <Attribute id="1014" value="0" name="sampleRate"/>
           <Attribute id="1015" value="0" name="bitDepth"/>
           <Attribute id="1016" value="1" name="gain"/>
           <Attribute id="1017" value="0" name="mixToMono"/>
          </Attributes>
         </AudioTransition>
         <ImageTransition id="1018" start="1887" duration="30" >
          <Transformer>
           <VectorParam id="1019"  name="translation">
            <InterpolatingParam id="1020" interp="linr"  time="0/1" value="0" leadInLength="0/1"  />
            <InterpolatingParam id="1021" interp="linr"  time="0/1" value="0" leadInLength="0/1"  />
            <InterpolatingParam id="1022" interp="linr"  time="0/1" value="0" leadInLength="0/1"  />
           </VectorParam>
           <VectorParam id="1023"  name="rotation">
            <InterpolatingParam id="1024" interp="linr"  time="0/1" value="0" leadInLength="0/1"  />
            <InterpolatingParam id="1025" interp="linr"  time="0/1" value="0" leadInLength="0/1"  />
            <InterpolatingParam id="1026" interp="linr"  time="0/1" value="0" leadInLength="0/1"  />
           </VectorParam>
           <VectorParam id="1027"  name="shear">
            <InterpolatingParam id="1028" interp="linr"  time="0/1" value="0" leadInLength="0/1"  />
            <InterpolatingParam id="1029" interp="linr"  time="0/1" value="0" leadInLength="0/1"  />
            <InterpolatingParam id="1030" interp="linr"  time="0/1" value="0" leadInLength="0/1"  />
           </VectorParam>
           <VectorParam id="1031"  name="scale">
            <InterpolatingParam id="1032" interp="linr"  time="0/1" value="1" leadInLength="0/1"  />
            <InterpolatingParam id="1033" interp="linr"  time="0/1" value="1" leadInLength="0/1"  />
            <InterpolatingParam id="1034" interp="linr"  time="0/1" value="1" leadInLength="0/1"  />
           </VectorParam>
           <VectorParam id="1035"  name="anchor">
            <InterpolatingParam id="1036" interp="linr"  time="0/1" value="0" leadInLength="0/1"  />
            <InterpolatingParam id="1037" interp="linr"  time="0/1" value="0" leadInLength="0/1"  />
            <InterpolatingParam id="1038" interp="linr"  time="0/1" value="0" leadInLength="0/1"  />
           </VectorParam>
          </Transformer>
          <Parameters>
           <VectorParam id="1039"  name="sourceCrop">
            <InterpolatingParam id="1040" interp="linr"  time="0/1" value="0" leadInLength="0/1"  />
            <InterpolatingParam id="1041" interp="linr"  time="0/1" value="0" leadInLength="0/1"  />
            <InterpolatingParam id="1042" interp="linr"  time="0/1" value="0" leadInLength="0/1"  />
            <InterpolatingParam id="1043" interp="linr"  time="0/1" value="0" leadInLength="0/1"  />
           </VectorParam>
           <VectorParam id="1044"  name="geometryCrop">
            <InterpolatingParam id="1045" interp="linr"  time="0/1" value="0" leadInLength="0/1"  />
            <InterpolatingParam id="1046" interp="linr"  time="0/1" value="0" leadInLength="0/1"  />
            <InterpolatingParam id="1047" interp="linr"  time="0/1" value="0" leadInLength="0/1"  />
            <InterpolatingParam id="1048" interp="linr"  time="0/1" value="0" leadInLength="0/1"  />
           </VectorParam>
           <InterpolatingParam id="1049" interp="linr"  time="0/1" value="1" leadInLength="0/1"  name="opacity"/>
          </Parameters>
          <Effects>
           <GenericEffect id="1050" name = "VisualTransition" >
            <Parameters>
            <InterpolatingParam id="1051" interp="linr"  time="0/1" value="1" leadInLength="0/1"   name="leftFramePercentage"/>
            <InterpolatingParam id="1052" interp="linr"  time="0/1" value="1" leadInLength="0/1"   name="rightFramePercentage"/>
            <Parameter id="1053"   name="visualEdgeModType">
             <Keyframes>
             <Keyframe id="1054"  time="0/1" value="0" leadInLength="0/1"  />
             </Keyframes>
            </Parameter>
            <Parameter id="1055"   name="visualTransitionType">
             <Keyframes>
             <Keyframe id="1056"  time="0/1" value="Fade" leadInLength="0/1"  />
             </Keyframes>
            </Parameter>
            </Parameters>
            <MetaData>
            </MetaData>
           </GenericEffect>
          </Effects>
          <Attributes>
           <Attribute id="1057" value="" name="ident"/>
          </Attributes>
          <ExtraData>
           <Entry key="ZoomPanBin">
            <ZoomPanBin id="1058"  >
             <ZoomPanKeyframes>
             </ZoomPanKeyframes>
            </ZoomPanBin>
           </Entry>
          </ExtraData>
         </ImageTransition>
         <MetaData>
          <entry key="WinSubProjectDisplayName" val=""/>
         </MetaData>
        </UnifiedMedia>
        <UnifiedMedia id="1059"  >
         <AMFile id="1060" start="1917" duration="55" scalar="1/1" mediaStart="431/1" mediaDuration="55/1" trackNumber="1" src="8" channelNumber="0,1" >
          <Parameters>
           <InterpolatingParam id="1061" interp="linr"  time="0/1" value="1" leadInLength="0/1"  name="volume"/>
           <Parameter id="1062"  name="captions"/>
          </Parameters>
          <Attributes>
           <Attribute id="1063" value="" name="ident"/>
           <Attribute id="1064" value="44100" name="sampleRate"/>
           <Attribute id="1065" value="16" name="bitDepth"/>
           <Attribute id="1066" value="1" name="gain"/>
           <Attribute id="1067" value="0" name="mixToMono"/>
          </Attributes>
         </AMFile>
         <VMFile id="1068" start="1917" duration="55" scalar="1/1" mediaStart="431/1" mediaDuration="55/1" trackNumber="0" src="8" >
          <Transformer>
           <VectorParam id="1069"  name="translation">
            <InterpolatingParam id="1070" interp="linr"  time="-9999999/1" value="0" leadInLength="0/1"  />
            <InterpolatingParam id="1071" interp="linr"  time="-9999999/1" value="0" leadInLength="0/1"  />
            <InterpolatingParam id="1072" interp="linr"  time="-9999999/1" value="0" leadInLength="0/1"  />
           </VectorParam>
           <VectorParam id="1073"  name="rotation">
            <InterpolatingParam id="1074" interp="linr"  time="-9999999/1" value="0" leadInLength="0/1"  />
            <InterpolatingParam id="1075" interp="linr"  time="-9999999/1" value="0" leadInLength="0/1"  />
            <InterpolatingParam id="1076" interp="linr"  time="-9999999/1" value="0" leadInLength="0/1"  />
           </VectorParam>
           <VectorParam id="1077"  name="shear">
            <InterpolatingParam id="1078" interp="linr"  time="-9999999/1" value="0" leadInLength="0/1"  />
            <InterpolatingParam id="1079" interp="linr"  time="-9999999/1" value="0" leadInLength="0/1"  />
            <InterpolatingParam id="1080" interp="linr"  time="-9999999/1" value="0" leadInLength="0/1"  />
           </VectorParam>
           <VectorParam id="1081"  name="scale">
            <InterpolatingParam id="1082" interp="linr"  time="-9999999/1" value="0.59999999999999998" leadInLength="0/1"  />
            <InterpolatingParam id="1083" interp="linr"  time="-9999999/1" value="0.59999999999999998" leadInLength="0/1"  />
            <InterpolatingParam id="1084" interp="linr"  time="-9999999/1" value="1" leadInLength="0/1"  />
           </VectorParam>
           <VectorParam id="1085"  name="anchor">
            <InterpolatingParam id="1086" interp="linr"  time="0/1" value="0" leadInLength="0/1"  />
            <InterpolatingParam id="1087" interp="linr"  time="0/1" value="0" leadInLength="0/1"  />
            <InterpolatingParam id="1088" interp="linr"  time="0/1" value="0" leadInLength="0/1"  />
           </VectorParam>
          </Transformer>
          <Parameters>
           <VectorParam id="1089"  name="sourceCrop">
            <InterpolatingParam id="1090" interp="linr"  time="0/1" value="0" leadInLength="0/1"  />
            <InterpolatingParam id="1091" interp="linr"  time="0/1" value="0" leadInLength="0/1"  />
            <InterpolatingParam id="1092" interp="linr"  time="0/1" value="0" leadInLength="0/1"  />
            <InterpolatingParam id="1093" interp="linr"  time="0/1" value="0" leadInLength="0/1"  />
           </VectorParam>
           <VectorParam id="1094"  name="geometryCrop">
            <InterpolatingParam id="1095" interp="linr"  time="-9999999/1" value="0" leadInLength="0/1"  />
            <InterpolatingParam id="1096" interp="linr"  time="-9999999/1" value="0" leadInLength="0/1"  />
            <InterpolatingParam id="1097" interp="linr"  time="-9999999/1" value="0" leadInLength="0/1"  />
            <InterpolatingParam id="1098" interp="linr"  time="-9999999/1" value="0" leadInLength="0/1"  />
           </VectorParam>
           <InterpolatingParam id="1099" interp="linr"  time="-9999999/1" value="1" leadInLength="0/1"  name="opacity"/>
          </Parameters>
          <Attributes>
           <Attribute id="1100" value="" name="ident"/>
          </Attributes>
          <ExtraData>
           <Entry key="ZoomPanBin">
            <ZoomPanBin id="1101"  >
             <ZoomPanKeyframes>
              <ZoomPanKeyframe id="1102" timeRangeEnd="-9999999/1" timeRangeDuration="0/1" interpolaterName="linr"  />
             </ZoomPanKeyframes>
            </ZoomPanBin>
           </Entry>
          </ExtraData>
         </VMFile>
         <MetaData>
          <entry key="WinSubProjectDisplayName" val=""/>
         </MetaData>
        </UnifiedMedia>
        <UnifiedMedia id="1103"  >
         <AudioTransition id="1104" start="1972" duration="30" >
          <Parameters>
           <InterpolatingParam id="1105" interp="linr"  time="0/1" value="1" leadInLength="0/1"  name="volume"/>
           <Parameter id="1106"  name="captions"/>
          </Parameters>
          <Effects>
           <GenericEffect id="1107" name = "AudioTransition" >
            <Parameters>
            <Parameter id="1108"   name="audioEdgeModType">
             <Keyframes>
             <Keyframe id="1109"  time="0/1" value="0" leadInLength="0/1"  />
             </Keyframes>
            </Parameter>
            <Parameter id="1110"   name="audioTransitionType">
             <Keyframes>
             <Keyframe id="1111"  time="0/1" value="" leadInLength="0/1"  />
             </Keyframes>
            </Parameter>
            </Parameters>
            <MetaData>
            </MetaData>
           </GenericEffect>
          </Effects>
          <Attributes>
           <Attribute id="1112" value="" name="ident"/>
           <Attribute id="1113" value="0" name="sampleRate"/>
           <Attribute id="1114" value="0" name="bitDepth"/>
           <Attribute id="1115" value="1" name="gain"/>
           <Attribute id="1116" value="0" name="mixToMono"/>
          </Attributes>
         </AudioTransition>
         <ImageTransition id="1117" start="1972" duration="30" >
          <Transformer>
           <VectorParam id="1118"  name="translation">
            <InterpolatingParam id="1119" interp="linr"  time="0/1" value="0" leadInLength="0/1"  />
            <InterpolatingParam id="1120" interp="linr"  time="0/1" value="0" leadInLength="0/1"  />
            <InterpolatingParam id="1121" interp="linr"  time="0/1" value="0" leadInLength="0/1"  />
           </VectorParam>
           <VectorParam id="1122"  name="rotation">
            <InterpolatingParam id="1123" interp="linr"  time="0/1" value="0" leadInLength="0/1"  />
            <InterpolatingParam id="1124" interp="linr"  time="0/1" value="0" leadInLength="0/1"  />
            <InterpolatingParam id="1125" interp="linr"  time="0/1" value="0" leadInLength="0/1"  />
           </VectorParam>
           <VectorParam id="1126"  name="shear">
            <InterpolatingParam id="1127" interp="linr"  time="0/1" value="0" leadInLength="0/1"  />
            <InterpolatingParam id="1128" interp="linr"  time="0/1" value="0" leadInLength="0/1"  />
            <InterpolatingParam id="1129" interp="linr"  time="0/1" value="0" leadInLength="0/1"  />
           </VectorParam>
           <VectorParam id="1130"  name="scale">
            <InterpolatingParam id="1131" interp="linr"  time="0/1" value="1" leadInLength="0/1"  />
            <InterpolatingParam id="1132" interp="linr"  time="0/1" value="1" leadInLength="0/1"  />
            <InterpolatingParam id="1133" interp="linr"  time="0/1" value="1" leadInLength="0/1"  />
           </VectorParam>
           <VectorParam id="1134"  name="anchor">
            <InterpolatingParam id="1135" interp="linr"  time="0/1" value="0" leadInLength="0/1"  />
            <InterpolatingParam id="1136" interp="linr"  time="0/1" value="0" leadInLength="0/1"  />
            <InterpolatingParam id="1137" interp="linr"  time="0/1" value="0" leadInLength="0/1"  />
           </VectorParam>
          </Transformer>
          <Parameters>
           <VectorParam id="1138"  name="sourceCrop">
            <InterpolatingParam id="1139" interp="linr"  time="0/1" value="0" leadInLength="0/1"  />
            <InterpolatingParam id="1140" interp="linr"  time="0/1" value="0" leadInLength="0/1"  />
            <InterpolatingParam id="1141" interp="linr"  time="0/1" value="0" leadInLength="0/1"  />
            <InterpolatingParam id="1142" interp="linr"  time="0/1" value="0" leadInLength="0/1"  />
           </VectorParam>
           <VectorParam id="1143"  name="geometryCrop">
            <InterpolatingParam id="1144" interp="linr"  time="0/1" value="0" leadInLength="0/1"  />
            <InterpolatingParam id="1145" interp="linr"  time="0/1" value="0" leadInLength="0/1"  />
            <InterpolatingParam id="1146" interp="linr"  time="0/1" value="0" leadInLength="0/1"  />
            <InterpolatingParam id="1147" interp="linr"  time="0/1" value="0" leadInLength="0/1"  />
           </VectorParam>
           <InterpolatingParam id="1148" interp="linr"  time="0/1" value="1" leadInLength="0/1"  name="opacity"/>
          </Parameters>
          <Effects>
           <GenericEffect id="1149" name = "VisualTransition" >
            <Parameters>
            <InterpolatingParam id="1150" interp="linr"  time="0/1" value="1" leadInLength="0/1"   name="leftFramePercentage"/>
            <InterpolatingParam id="1151" interp="linr"  time="0/1" value="1" leadInLength="0/1"   name="rightFramePercentage"/>
            <Parameter id="1152"   name="visualEdgeModType">
             <Keyframes>
             <Keyframe id="1153"  time="0/1" value="0" leadInLength="0/1"  />
             </Keyframes>
            </Parameter>
            <Parameter id="1154"   name="visualTransitionType">
             <Keyframes>
             <Keyframe id="1155"  time="0/1" value="Fade" leadInLength="0/1"  />
             </Keyframes>
            </Parameter>
            </Parameters>
            <MetaData>
            </MetaData>
           </GenericEffect>
          </Effects>
          <Attributes>
           <Attribute id="1156" value="" name="ident"/>
          </Attributes>
          <ExtraData>
           <Entry key="ZoomPanBin">
            <ZoomPanBin id="1157"  >
             <ZoomPanKeyframes>
             </ZoomPanKeyframes>
            </ZoomPanBin>
           </Entry>
          </ExtraData>
         </ImageTransition>
         <MetaData>
          <entry key="WinSubProjectDisplayName" val=""/>
         </MetaData>
        </UnifiedMedia>
        <UnifiedMedia id="1158"  >
         <AMFile id="1159" start="2002" duration="174" scalar="1/1" mediaStart="616/1" mediaDuration="174/1" trackNumber="1" src="8" channelNumber="0,1" >
          <Parameters>
           <InterpolatingParam id="1160" interp="linr"  time="0/1" value="1" leadInLength="0/1"  name="volume"/>
           <Parameter id="1161"  name="captions"/>
          </Parameters>
          <Attributes>
           <Attribute id="1162" value="" name="ident"/>
           <Attribute id="1163" value="44100" name="sampleRate"/>
           <Attribute id="1164" value="16" name="bitDepth"/>
           <Attribute id="1165" value="1" name="gain"/>
           <Attribute id="1166" value="0" name="mixToMono"/>
          </Attributes>
         </AMFile>
         <VMFile id="1167" start="2002" duration="174" scalar="1/1" mediaStart="616/1" mediaDuration="174/1" trackNumber="0" src="8" >
          <Transformer>
           <VectorParam id="1168"  name="translation">
            <InterpolatingParam id="1169" interp="linr"  time="-9999999/1" value="0" leadInLength="0/1"  />
            <InterpolatingParam id="1170" interp="linr"  time="-9999999/1" value="0" leadInLength="0/1"  />
            <InterpolatingParam id="1171" interp="linr"  time="-9999999/1" value="0" leadInLength="0/1"  />
           </VectorParam>
           <VectorParam id="1172"  name="rotation">
            <InterpolatingParam id="1173" interp="linr"  time="-9999999/1" value="0" leadInLength="0/1"  />
            <InterpolatingParam id="1174" interp="linr"  time="-9999999/1" value="0" leadInLength="0/1"  />
            <InterpolatingParam id="1175" interp="linr"  time="-9999999/1" value="0" leadInLength="0/1"  />
           </VectorParam>
           <VectorParam id="1176"  name="shear">
            <InterpolatingParam id="1177" interp="linr"  time="-9999999/1" value="0" leadInLength="0/1"  />
            <InterpolatingParam id="1178" interp="linr"  time="-9999999/1" value="0" leadInLength="0/1"  />
            <InterpolatingParam id="1179" interp="linr"  time="-9999999/1" value="0" leadInLength="0/1"  />
           </VectorParam>
           <VectorParam id="1180"  name="scale">
            <InterpolatingParam id="1181" interp="linr"  time="-9999999/1" value="0.59999999999999998" leadInLength="0/1"  />
            <InterpolatingParam id="1182" interp="linr"  time="-9999999/1" value="0.59999999999999998" leadInLength="0/1"  />
            <InterpolatingParam id="1183" interp="linr"  time="-9999999/1" value="1" leadInLength="0/1"  />
           </VectorParam>
           <VectorParam id="1184"  name="anchor">
            <InterpolatingParam id="1185" interp="linr"  time="0/1" value="0" leadInLength="0/1"  />
            <InterpolatingParam id="1186" interp="linr"  time="0/1" value="0" leadInLength="0/1"  />
            <InterpolatingParam id="1187" interp="linr"  time="0/1" value="0" leadInLength="0/1"  />
           </VectorParam>
          </Transformer>
          <Parameters>
           <VectorParam id="1188"  name="sourceCrop">
            <InterpolatingParam id="1189" interp="linr"  time="0/1" value="0" leadInLength="0/1"  />
            <InterpolatingParam id="1190" interp="linr"  time="0/1" value="0" leadInLength="0/1"  />
            <InterpolatingParam id="1191" interp="linr"  time="0/1" value="0" leadInLength="0/1"  />
            <InterpolatingParam id="1192" interp="linr"  time="0/1" value="0" leadInLength="0/1"  />
           </VectorParam>
           <VectorParam id="1193"  name="geometryCrop">
            <InterpolatingParam id="1194" interp="linr"  time="-9999999/1" value="0" leadInLength="0/1"  />
            <InterpolatingParam id="1195" interp="linr"  time="-9999999/1" value="0" leadInLength="0/1"  />
            <InterpolatingParam id="1196" interp="linr"  time="-9999999/1" value="0" leadInLength="0/1"  />
            <InterpolatingParam id="1197" interp="linr"  time="-9999999/1" value="0" leadInLength="0/1"  />
           </VectorParam>
           <InterpolatingParam id="1198" interp="linr"  time="-9999999/1" value="1" leadInLength="0/1"  name="opacity"/>
          </Parameters>
          <Attributes>
           <Attribute id="1199" value="" name="ident"/>
          </Attributes>
          <ExtraData>
           <Entry key="ZoomPanBin">
            <ZoomPanBin id="1200"  >
             <ZoomPanKeyframes>
              <ZoomPanKeyframe id="1201" timeRangeEnd="-9999999/1" timeRangeDuration="0/1" interpolaterName="linr"  />
             </ZoomPanKeyframes>
            </ZoomPanBin>
           </Entry>
          </ExtraData>
         </VMFile>
         <MetaData>
          <entry key="WinSubProjectDisplayName" val=""/>
         </MetaData>
        </UnifiedMedia>
        <UnifiedMedia id="1202"  >
         <AMFile id="1203" start="2176" duration="45" scalar="1/1" mediaStart="0/1" mediaDuration="45/1" trackNumber="1" src="9" channelNumber="0,1" >
          <Parameters>
           <InterpolatingParam id="1204" interp="linr"  time="0/1" value="1" leadInLength="0/1"  name="volume"/>
           <Parameter id="1205"  name="captions"/>
          </Parameters>
          <Attributes>
           <Attribute id="1206" value="" name="ident"/>
           <Attribute id="1207" value="44100" name="sampleRate"/>
           <Attribute id="1208" value="16" name="bitDepth"/>
           <Attribute id="1209" value="1" name="gain"/>
           <Attribute id="1210" value="0" name="mixToMono"/>
          </Attributes>
         </AMFile>
         <VMFile id="1211" start="2176" duration="45" scalar="1/1" mediaStart="0/1" mediaDuration="45/1" trackNumber="0" src="9" >
          <Transformer>
           <VectorParam id="1212"  name="translation">
            <InterpolatingParam id="1213" interp="linr"  time="-9999999/1" value="0" leadInLength="0/1"  />
            <InterpolatingParam id="1214" interp="linr"  time="-9999999/1" value="0" leadInLength="0/1"  />
            <InterpolatingParam id="1215" interp="linr"  time="-9999999/1" value="0" leadInLength="0/1"  />
           </VectorParam>
           <VectorParam id="1216"  name="rotation">
            <InterpolatingParam id="1217" interp="linr"  time="-9999999/1" value="0" leadInLength="0/1"  />
            <InterpolatingParam id="1218" interp="linr"  time="-9999999/1" value="0" leadInLength="0/1"  />
            <InterpolatingParam id="1219" interp="linr"  time="-9999999/1" value="0" leadInLength="0/1"  />
           </VectorParam>
           <VectorParam id="1220"  name="shear">
            <InterpolatingParam id="1221" interp="linr"  time="-9999999/1" value="0" leadInLength="0/1"  />
            <InterpolatingParam id="1222" interp="linr"  time="-9999999/1" value="0" leadInLength="0/1"  />
            <InterpolatingParam id="1223" interp="linr"  time="-9999999/1" value="0" leadInLength="0/1"  />
           </VectorParam>
           <VectorParam id="1224"  name="scale">
            <InterpolatingParam id="1225" interp="linr"  time="-9999999/1" value="0.59999999999999998" leadInLength="0/1"  />
            <InterpolatingParam id="1226" interp="linr"  time="-9999999/1" value="0.59999999999999998" leadInLength="0/1"  />
            <InterpolatingParam id="1227" interp="linr"  time="-9999999/1" value="1" leadInLength="0/1"  />
           </VectorParam>
           <VectorParam id="1228"  name="anchor">
            <InterpolatingParam id="1229" interp="linr"  time="0/1" value="0" leadInLength="0/1"  />
            <InterpolatingParam id="1230" interp="linr"  time="0/1" value="0" leadInLength="0/1"  />
            <InterpolatingParam id="1231" interp="linr"  time="0/1" value="0" leadInLength="0/1"  />
           </VectorParam>
          </Transformer>
          <Parameters>
           <VectorParam id="1232"  name="sourceCrop">
            <InterpolatingParam id="1233" interp="linr"  time="0/1" value="0" leadInLength="0/1"  />
            <InterpolatingParam id="1234" interp="linr"  time="0/1" value="0" leadInLength="0/1"  />
            <InterpolatingParam id="1235" interp="linr"  time="0/1" value="0" leadInLength="0/1"  />
            <InterpolatingParam id="1236" interp="linr"  time="0/1" value="0" leadInLength="0/1"  />
           </VectorParam>
           <VectorParam id="1237"  name="geometryCrop">
            <InterpolatingParam id="1238" interp="linr"  time="-9999999/1" value="0" leadInLength="0/1"  />
            <InterpolatingParam id="1239" interp="linr"  time="-9999999/1" value="0" leadInLength="0/1"  />
            <InterpolatingParam id="1240" interp="linr"  time="-9999999/1" value="0" leadInLength="0/1"  />
            <InterpolatingParam id="1241" interp="linr"  time="-9999999/1" value="0" leadInLength="0/1"  />
           </VectorParam>
           <InterpolatingParam id="1242" interp="linr"  time="-9999999/1" value="1" leadInLength="0/1"  name="opacity"/>
          </Parameters>
          <Attributes>
           <Attribute id="1243" value="" name="ident"/>
          </Attributes>
          <ExtraData>
           <Entry key="ZoomPanBin">
            <ZoomPanBin id="1244"  >
             <ZoomPanKeyframes>
              <ZoomPanKeyframe id="1245" timeRangeEnd="-9999999/1" timeRangeDuration="0/1" interpolaterName="linr"  />
             </ZoomPanKeyframes>
            </ZoomPanBin>
           </Entry>
          </ExtraData>
         </VMFile>
         <MetaData>
          <entry key="WinSubProjectDisplayName" val=""/>
         </MetaData>
        </UnifiedMedia>
        <UnifiedMedia id="1246"  >
         <AudioTransition id="1247" start="2221" duration="30" >
          <Parameters>
           <InterpolatingParam id="1248" interp="linr"  time="0/1" value="1" leadInLength="0/1"  name="volume"/>
           <Parameter id="1249"  name="captions"/>
          </Parameters>
          <Effects>
           <GenericEffect id="1250" name = "AudioTransition" >
            <Parameters>
            <Parameter id="1251"   name="audioEdgeModType">
             <Keyframes>
             <Keyframe id="1252"  time="0/1" value="0" leadInLength="0/1"  />
             </Keyframes>
            </Parameter>
            <Parameter id="1253"   name="audioTransitionType">
             <Keyframes>
             <Keyframe id="1254"  time="0/1" value="" leadInLength="0/1"  />
             </Keyframes>
            </Parameter>
            </Parameters>
            <MetaData>
            </MetaData>
           </GenericEffect>
          </Effects>
          <Attributes>
           <Attribute id="1255" value="" name="ident"/>
           <Attribute id="1256" value="0" name="sampleRate"/>
           <Attribute id="1257" value="0" name="bitDepth"/>
           <Attribute id="1258" value="1" name="gain"/>
           <Attribute id="1259" value="0" name="mixToMono"/>
          </Attributes>
         </AudioTransition>
         <ImageTransition id="1260" start="2221" duration="30" >
          <Transformer>
           <VectorParam id="1261"  name="translation">
            <InterpolatingParam id="1262" interp="linr"  time="0/1" value="0" leadInLength="0/1"  />
            <InterpolatingParam id="1263" interp="linr"  time="0/1" value="0" leadInLength="0/1"  />
            <InterpolatingParam id="1264" interp="linr"  time="0/1" value="0" leadInLength="0/1"  />
           </VectorParam>
           <VectorParam id="1265"  name="rotation">
            <InterpolatingParam id="1266" interp="linr"  time="0/1" value="0" leadInLength="0/1"  />
            <InterpolatingParam id="1267" interp="linr"  time="0/1" value="0" leadInLength="0/1"  />
            <InterpolatingParam id="1268" interp="linr"  time="0/1" value="0" leadInLength="0/1"  />
           </VectorParam>
           <VectorParam id="1269"  name="shear">
            <InterpolatingParam id="1270" interp="linr"  time="0/1" value="0" leadInLength="0/1"  />
            <InterpolatingParam id="1271" interp="linr"  time="0/1" value="0" leadInLength="0/1"  />
            <InterpolatingParam id="1272" interp="linr"  time="0/1" value="0" leadInLength="0/1"  />
           </VectorParam>
           <VectorParam id="1273"  name="scale">
            <InterpolatingParam id="1274" interp="linr"  time="0/1" value="1" leadInLength="0/1"  />
            <InterpolatingParam id="1275" interp="linr"  time="0/1" value="1" leadInLength="0/1"  />
            <InterpolatingParam id="1276" interp="linr"  time="0/1" value="1" leadInLength="0/1"  />
           </VectorParam>
           <VectorParam id="1277"  name="anchor">
            <InterpolatingParam id="1278" interp="linr"  time="0/1" value="0" leadInLength="0/1"  />
            <InterpolatingParam id="1279" interp="linr"  time="0/1" value="0" leadInLength="0/1"  />
            <InterpolatingParam id="1280" interp="linr"  time="0/1" value="0" leadInLength="0/1"  />
           </VectorParam>
          </Transformer>
          <Parameters>
           <VectorParam id="1281"  name="sourceCrop">
            <InterpolatingParam id="1282" interp="linr"  time="0/1" value="0" leadInLength="0/1"  />
            <InterpolatingParam id="1283" interp="linr"  time="0/1" value="0" leadInLength="0/1"  />
            <InterpolatingParam id="1284" interp="linr"  time="0/1" value="0" leadInLength="0/1"  />
            <InterpolatingParam id="1285" interp="linr"  time="0/1" value="0" leadInLength="0/1"  />
           </VectorParam>
           <VectorParam id="1286"  name="geometryCrop">
            <InterpolatingParam id="1287" interp="linr"  time="0/1" value="0" leadInLength="0/1"  />
            <InterpolatingParam id="1288" interp="linr"  time="0/1" value="0" leadInLength="0/1"  />
            <InterpolatingParam id="1289" interp="linr"  time="0/1" value="0" leadInLength="0/1"  />
            <InterpolatingParam id="1290" interp="linr"  time="0/1" value="0" leadInLength="0/1"  />
           </VectorParam>
           <InterpolatingParam id="1291" interp="linr"  time="0/1" value="1" leadInLength="0/1"  name="opacity"/>
          </Parameters>
          <Effects>
           <GenericEffect id="1292" name = "VisualTransition" >
            <Parameters>
            <InterpolatingParam id="1293" interp="linr"  time="0/1" value="1" leadInLength="0/1"   name="leftFramePercentage"/>
            <InterpolatingParam id="1294" interp="linr"  time="0/1" value="1" leadInLength="0/1"   name="rightFramePercentage"/>
            <Parameter id="1295"   name="visualEdgeModType">
             <Keyframes>
             <Keyframe id="1296"  time="0/1" value="0" leadInLength="0/1"  />
             </Keyframes>
            </Parameter>
            <Parameter id="1297"   name="visualTransitionType">
             <Keyframes>
             <Keyframe id="1298"  time="0/1" value="Fade" leadInLength="0/1"  />
             </Keyframes>
            </Parameter>
            </Parameters>
            <MetaData>
            </MetaData>
           </GenericEffect>
          </Effects>
          <Attributes>
           <Attribute id="1299" value="" name="ident"/>
          </Attributes>
          <ExtraData>
           <Entry key="ZoomPanBin">
            <ZoomPanBin id="1300"  >
             <ZoomPanKeyframes>
             </ZoomPanKeyframes>
            </ZoomPanBin>
           </Entry>
          </ExtraData>
         </ImageTransition>
         <MetaData>
          <entry key="WinSubProjectDisplayName" val=""/>
         </MetaData>
        </UnifiedMedia>
        <VMFile id="1301" start="2251" duration="59" scalar="1/1" mediaStart="232/1" mediaDuration="59/1" trackNumber="0" src="9" >
         <Transformer>
          <VectorParam id="1302"  name="translation">
           <InterpolatingParam id="1303" interp="linr"  time="-9999999/1" value="0" leadInLength="0/1"  />
           <InterpolatingParam id="1304" interp="linr"  time="-9999999/1" value="0" leadInLength="0/1"  />
           <InterpolatingParam id="1305" interp="linr"  time="-9999999/1" value="0" leadInLength="0/1"  />
          </VectorParam>
          <VectorParam id="1306"  name="rotation">
           <InterpolatingParam id="1307" interp="linr"  time="-9999999/1" value="0" leadInLength="0/1"  />
           <InterpolatingParam id="1308" interp="linr"  time="-9999999/1" value="0" leadInLength="0/1"  />
           <InterpolatingParam id="1309" interp="linr"  time="-9999999/1" value="0" leadInLength="0/1"  />
          </VectorParam>
          <VectorParam id="1310"  name="shear">
           <InterpolatingParam id="1311" interp="linr"  time="-9999999/1" value="0" leadInLength="0/1"  />
           <InterpolatingParam id="1312" interp="linr"  time="-9999999/1" value="0" leadInLength="0/1"  />
           <InterpolatingParam id="1313" interp="linr"  time="-9999999/1" value="0" leadInLength="0/1"  />
          </VectorParam>
          <VectorParam id="1314"  name="scale">
           <InterpolatingParam id="1315" interp="linr"  time="-9999999/1" value="0.59999999999999998" leadInLength="0/1"  />
           <InterpolatingParam id="1316" interp="linr"  time="-9999999/1" value="0.59999999999999998" leadInLength="0/1"  />
           <InterpolatingParam id="1317" interp="linr"  time="-9999999/1" value="1" leadInLength="0/1"  />
          </VectorParam>
          <VectorParam id="1318"  name="anchor">
           <InterpolatingParam id="1319" interp="linr"  time="0/1" value="0" leadInLength="0/1"  />
           <InterpolatingParam id="1320" interp="linr"  time="0/1" value="0" leadInLength="0/1"  />
           <InterpolatingParam id="1321" interp="linr"  time="0/1" value="0" leadInLength="0/1"  />
          </VectorParam>
         </Transformer>
         <Parameters>
          <VectorParam id="1322"  name="sourceCrop">
           <InterpolatingParam id="1323" interp="linr"  time="0/1" value="0" leadInLength="0/1"  />
           <InterpolatingParam id="1324" interp="linr"  time="0/1" value="0" leadInLength="0/1"  />
           <InterpolatingParam id="1325" interp="linr"  time="0/1" value="0" leadInLength="0/1"  />
           <InterpolatingParam id="1326" interp="linr"  time="0/1" value="0" leadInLength="0/1"  />
          </VectorParam>
          <VectorParam id="1327"  name="geometryCrop">
           <InterpolatingParam id="1328" interp="linr"  time="-9999999/1" value="0" leadInLength="0/1"  />
           <InterpolatingParam id="1329" interp="linr"  time="-9999999/1" value="0" leadInLength="0/1"  />
           <InterpolatingParam id="1330" interp="linr"  time="-9999999/1" value="0" leadInLength="0/1"  />
           <InterpolatingParam id="1331" interp="linr"  time="-9999999/1" value="0" leadInLength="0/1"  />
          </VectorParam>
          <InterpolatingParam id="1332" interp="linr"  time="-9999999/1" value="1" leadInLength="0/1"  name="opacity"/>
         </Parameters>
         <Attributes>
          <Attribute id="1333" value="" name="ident"/>
         </Attributes>
         <MetaData>
          <entry key="WinSubProjectDisplayName" val=""/>
         </MetaData>
         <ExtraData>
          <Entry key="ZoomPanBin">
           <ZoomPanBin id="1334"  >
            <ZoomPanKeyframes>
             <ZoomPanKeyframe id="1335" timeRangeEnd="-9999999/1" timeRangeDuration="0/1" interpolaterName="linr"  />
            </ZoomPanKeyframes>
           </ZoomPanBin>
          </Entry>
         </ExtraData>
        </VMFile>
        <UnifiedMedia id="1336"  >
         <AudioTransition id="1337" start="2310" duration="30" >
          <Parameters>
           <InterpolatingParam id="1338" interp="linr"  time="0/1" value="1" leadInLength="0/1"  name="volume"/>
           <Parameter id="1339"  name="captions"/>
          </Parameters>
          <Effects>
           <GenericEffect id="1340" name = "AudioTransition" >
            <Parameters>
            <Parameter id="1341"   name="audioEdgeModType">
             <Keyframes>
             <Keyframe id="1342"  time="0/1" value="0" leadInLength="0/1"  />
             </Keyframes>
            </Parameter>
            <Parameter id="1343"   name="audioTransitionType">
             <Keyframes>
             <Keyframe id="1344"  time="0/1" value="" leadInLength="0/1"  />
             </Keyframes>
            </Parameter>
            </Parameters>
            <MetaData>
            </MetaData>
           </GenericEffect>
          </Effects>
          <Attributes>
           <Attribute id="1345" value="" name="ident"/>
           <Attribute id="1346" value="0" name="sampleRate"/>
           <Attribute id="1347" value="0" name="bitDepth"/>
           <Attribute id="1348" value="1" name="gain"/>
           <Attribute id="1349" value="0" name="mixToMono"/>
          </Attributes>
         </AudioTransition>
         <ImageTransition id="1350" start="2310" duration="30" >
          <Transformer>
           <VectorParam id="1351"  name="translation">
            <InterpolatingParam id="1352" interp="linr"  time="0/1" value="0" leadInLength="0/1"  />
            <InterpolatingParam id="1353" interp="linr"  time="0/1" value="0" leadInLength="0/1"  />
            <InterpolatingParam id="1354" interp="linr"  time="0/1" value="0" leadInLength="0/1"  />
           </VectorParam>
           <VectorParam id="1355"  name="rotation">
            <InterpolatingParam id="1356" interp="linr"  time="0/1" value="0" leadInLength="0/1"  />
            <InterpolatingParam id="1357" interp="linr"  time="0/1" value="0" leadInLength="0/1"  />
            <InterpolatingParam id="1358" interp="linr"  time="0/1" value="0" leadInLength="0/1"  />
           </VectorParam>
           <VectorParam id="1359"  name="shear">
            <InterpolatingParam id="1360" interp="linr"  time="0/1" value="0" leadInLength="0/1"  />
            <InterpolatingParam id="1361" interp="linr"  time="0/1" value="0" leadInLength="0/1"  />
            <InterpolatingParam id="1362" interp="linr"  time="0/1" value="0" leadInLength="0/1"  />
           </VectorParam>
           <VectorParam id="1363"  name="scale">
            <InterpolatingParam id="1364" interp="linr"  time="0/1" value="1" leadInLength="0/1"  />
            <InterpolatingParam id="1365" interp="linr"  time="0/1" value="1" leadInLength="0/1"  />
            <InterpolatingParam id="1366" interp="linr"  time="0/1" value="1" leadInLength="0/1"  />
           </VectorParam>
           <VectorParam id="1367"  name="anchor">
            <InterpolatingParam id="1368" interp="linr"  time="0/1" value="0" leadInLength="0/1"  />
            <InterpolatingParam id="1369" interp="linr"  time="0/1" value="0" leadInLength="0/1"  />
            <InterpolatingParam id="1370" interp="linr"  time="0/1" value="0" leadInLength="0/1"  />
           </VectorParam>
          </Transformer>
          <Parameters>
           <VectorParam id="1371"  name="sourceCrop">
            <InterpolatingParam id="1372" interp="linr"  time="0/1" value="0" leadInLength="0/1"  />
            <InterpolatingParam id="1373" interp="linr"  time="0/1" value="0" leadInLength="0/1"  />
            <InterpolatingParam id="1374" interp="linr"  time="0/1" value="0" leadInLength="0/1"  />
            <InterpolatingParam id="1375" interp="linr"  time="0/1" value="0" leadInLength="0/1"  />
           </VectorParam>
           <VectorParam id="1376"  name="geometryCrop">
            <InterpolatingParam id="1377" interp="linr"  time="0/1" value="0" leadInLength="0/1"  />
            <InterpolatingParam id="1378" interp="linr"  time="0/1" value="0" leadInLength="0/1"  />
            <InterpolatingParam id="1379" interp="linr"  time="0/1" value="0" leadInLength="0/1"  />
            <InterpolatingParam id="1380" interp="linr"  time="0/1" value="0" leadInLength="0/1"  />
           </VectorParam>
           <InterpolatingParam id="1381" interp="linr"  time="0/1" value="1" leadInLength="0/1"  name="opacity"/>
          </Parameters>
          <Effects>
           <GenericEffect id="1382" name = "VisualTransition" >
            <Parameters>
            <InterpolatingParam id="1383" interp="linr"  time="0/1" value="0.5" leadInLength="0/1"   name="leftFramePercentage"/>
            <InterpolatingParam id="1384" interp="linr"  time="0/1" value="0.5" leadInLength="0/1"   name="rightFramePercentage"/>
            <Parameter id="1385"   name="visualEdgeModType">
             <Keyframes>
             <Keyframe id="1386"  time="0/1" value="2" leadInLength="0/1"  />
             </Keyframes>
            </Parameter>
            <Parameter id="1387"   name="visualTransitionType">
             <Keyframes>
             <Keyframe id="1388"  time="0/1" value="Fade" leadInLength="0/1"  />
             </Keyframes>
            </Parameter>
            </Parameters>
            <MetaData>
            </MetaData>
           </GenericEffect>
          </Effects>
          <Attributes>
           <Attribute id="1389" value="" name="ident"/>
          </Attributes>
          <ExtraData>
           <Entry key="ZoomPanBin">
            <ZoomPanBin id="1390"  >
             <ZoomPanKeyframes>
             </ZoomPanKeyframes>
            </ZoomPanBin>
           </Entry>
          </ExtraData>
         </ImageTransition>
         <MetaData>
          <entry key="WinSubProjectDisplayName" val=""/>
         </MetaData>
        </UnifiedMedia>
       </Medias>
      </GenericTrack>
      <GenericTrack id="1391"  >
       <Attributes>
        <Attribute id="1392" value="" name="ident"/>
        <Attribute id="1393" value="0" name="audioMuted"/>
        <Attribute id="1394" value="0" name="videoHidden"/>
       </Attributes>
       <MetaData>
        <entry key="IsLocked" val="False"/>
        <entry key="WinTrackHeight" val="56.704545454545439"/>
       </MetaData>
       <Medias>
        <AMFile id="1395" start="2236" duration="314" scalar="1/1" mediaStart="217/1" mediaDuration="314/1" trackNumber="1" src="9" channelNumber="0,1" >
         <Parameters>
          <InterpolatingParam id="1396" interp="linr"  name="volume">
           <Keyframes>
           <Keyframe id="1397"  time="0/1" value="1" leadInLength="0/1"  />
           <Keyframe id="1398"  time="303/1" value="1" leadInLength="0/1"  />
           <Keyframe id="1399"  time="351/1" value="0.67442577462617459" leadInLength="0/1"  />
           <Keyframe id="1400"  time="447/1" value="0.60852474179127358" leadInLength="0/1"  />
           <Keyframe id="1401"  time="505/1" value="0" leadInLength="0/1"  />
           </Keyframes>
          </InterpolatingParam>
          <Parameter id="1402"  name="captions"/>
         </Parameters>
         <Attributes>
          <Attribute id="1403" value="" name="ident"/>
          <Attribute id="1404" value="44100" name="sampleRate"/>
          <Attribute id="1405" value="16" name="bitDepth"/>
          <Attribute id="1406" value="1" name="gain"/>
          <Attribute id="1407" value="0" name="mixToMono"/>
         </Attributes>
         <MetaData>
          <entry key="WinSubProjectDisplayName" val=""/>
         </MetaData>
        </AMFile>
       </Medias>
      </GenericTrack>
      <GenericTrack id="1408"  >
       <Attributes>
        <Attribute id="1409" value="" name="ident"/>
        <Attribute id="1410" value="0" name="audioMuted"/>
        <Attribute id="1411" value="0" name="videoHidden"/>
       </Attributes>
       <MetaData>
        <entry key="IsLocked" val="True"/>
        <entry key="WinTrackHeight" val="56.704545454545439"/>
       </MetaData>
       <Medias>
        <Callout id="1412" start="0" duration="146" scalar="1/1" mediaStart="150/1" mediaDuration="146/1" >
         <Transformer>
          <VectorParam id="1413"  name="translation">
           <InterpolatingParam id="1414" interp="linr"  time="-9999999/1" value="-5.3887561080045998e-011" leadInLength="0/1"  />
           <InterpolatingParam id="1415" interp="linr"  time="-9999999/1" value="7.6795458880951628e-011" leadInLength="0/1"  />
           <InterpolatingParam id="1416" interp="linr"  time="-9999999/1" value="0" leadInLength="0/1"  />
          </VectorParam>
          <VectorParam id="1417"  name="rotation">
           <InterpolatingParam id="1418" interp="linr"  time="-9999999/1" value="0" leadInLength="0/1"  />
           <InterpolatingParam id="1419" interp="linr"  time="-9999999/1" value="0" leadInLength="0/1"  />
           <InterpolatingParam id="1420" interp="linr"  time="-9999999/1" value="0" leadInLength="0/1"  />
          </VectorParam>
          <VectorParam id="1421"  name="shear">
           <InterpolatingParam id="1422" interp="linr"  time="-9999999/1" value="0" leadInLength="0/1"  />
           <InterpolatingParam id="1423" interp="linr"  time="-9999999/1" value="0" leadInLength="0/1"  />
           <InterpolatingParam id="1424" interp="linr"  time="-9999999/1" value="0" leadInLength="0/1"  />
          </VectorParam>
          <VectorParam id="1425"  name="scale">
           <InterpolatingParam id="1426" interp="linr"  time="-9999999/1" value="4.183006535947654" leadInLength="0/1"  />
           <InterpolatingParam id="1427" interp="linr"  time="-9999999/1" value="3.1718061674007987" leadInLength="0/1"  />
           <InterpolatingParam id="1428" interp="linr"  time="-9999999/1" value="1" leadInLength="0/1"  />
          </VectorParam>
          <VectorParam id="1429"  name="anchor">
           <InterpolatingParam id="1430" interp="linr"  time="0/1" value="0" leadInLength="0/1"  />
           <InterpolatingParam id="1431" interp="linr"  time="0/1" value="0" leadInLength="0/1"  />
           <InterpolatingParam id="1432" interp="linr"  time="0/1" value="0" leadInLength="0/1"  />
          </VectorParam>
         </Transformer>
         <Parameters>
          <VectorParam id="1433"  name="sourceCrop">
           <InterpolatingParam id="1434" interp="linr"  time="0/1" value="0" leadInLength="0/1"  />
           <InterpolatingParam id="1435" interp="linr"  time="0/1" value="0" leadInLength="0/1"  />
           <InterpolatingParam id="1436" interp="linr"  time="0/1" value="0" leadInLength="0/1"  />
           <InterpolatingParam id="1437" interp="linr"  time="0/1" value="0" leadInLength="0/1"  />
          </VectorParam>
          <VectorParam id="1438"  name="geometryCrop">
           <InterpolatingParam id="1439" interp="linr"  time="-9999999/1" value="0" leadInLength="0/1"  />
           <InterpolatingParam id="1440" interp="linr"  time="-9999999/1" value="0" leadInLength="0/1"  />
           <InterpolatingParam id="1441" interp="linr"  time="-9999999/1" value="0" leadInLength="0/1"  />
           <InterpolatingParam id="1442" interp="linr"  time="-9999999/1" value="0" leadInLength="0/1"  />
          </VectorParam>
          <InterpolatingParam id="1443" interp="linr"  time="-9999999/1" value="1" leadInLength="0/1"  name="opacity"/>
         </Parameters>
         <Effects>
          <GenericEffect id="1444" name = "DropShadow" >
           <Parameters>
           <InterpolatingParam id="1445" interp="linr"  time="0/1" value="315" leadInLength="0/1"   name="angle"/>
           <InterpolatingParam id="1446" interp="linr"  time="0/1" value="2" leadInLength="0/1"   name="blur"/>
           <Parameter id="1447"   name="enabled">
            <Keyframes>
            <Keyframe id="1448"  time="0/1" value="1" leadInLength="0/1"  />
            </Keyframes>
           </Parameter>
           <InterpolatingParam id="1449" interp="linr"  time="0/1" value="4" leadInLength="0/1"   name="offset"/>
           <InterpolatingParam id="1450" interp="linr"  time="0/1" value="0.75" leadInLength="0/1"   name="opacity"/>
           </Parameters>
          </GenericEffect>
         </Effects>
         <Attributes>
          <Attribute id="1451"  name="vectorNode">
           <VectorNode id="1452" kind="TypeWinXML"  >
            <DoubleParameters>
             <InterpolatingParam id="1453" interp="linr"  time="0/1" value="-1" leadInLength="0/1"  name="CutoutPercentage"/>
             <InterpolatingParam id="1454" interp="linr"  time="0/1" value="30" leadInLength="0/1"  name="RoundedRectRadius"/>
             <InterpolatingParam id="1455" interp="linr"  time="0/1" value="5" leadInLength="0/1"  name="Style"/>
             <InterpolatingParam id="1456" interp="linr"  time="0/1" value="215" leadInLength="0/1"  name="borderColorBlue"/>
             <InterpolatingParam id="1457" interp="linr"  time="0/1" value="215" leadInLength="0/1"  name="borderColorGreen"/>
             <InterpolatingParam id="1458" interp="linr"  time="0/1" value="215" leadInLength="0/1"  name="borderColorRed"/>
             <InterpolatingParam id="1459" interp="linr"  time="0/1" value="0" leadInLength="0/1"  name="borderState"/>
             <InterpolatingParam id="1460" interp="linr"  time="0/1" value="5" leadInLength="0/1"  name="borderWidth"/>
             <InterpolatingParam id="1461" interp="linr"  time="0/1" value="0" leadInLength="0/1"  name="dimensionTime"/>
             <InterpolatingParam id="1462" interp="linr"  time="0/1" value="224" leadInLength="0/1"  name="fillColorBlue"/>
             <InterpolatingParam id="1463" interp="linr"  time="0/1" value="95" leadInLength="0/1"  name="fillColorGreen"/>
             <InterpolatingParam id="1464" interp="linr"  time="0/1" value="0" leadInLength="0/1"  name="fillColorRed"/>
             <InterpolatingParam id="1465" interp="linr"  time="0/1" value="0" leadInLength="0/1"  name="fillState"/>
             <InterpolatingParam id="1466" interp="linr"  time="0/1" value="0" leadInLength="0/1"  name="flipOnXAxis"/>
             <InterpolatingParam id="1467" interp="linr"  time="0/1" value="0" leadInLength="0/1"  name="flipOnYAxis"/>
             <InterpolatingParam id="1468" interp="linr"  time="0/1" value="227" leadInLength="0/1"  name="height"/>
             <InterpolatingParam id="1469" interp="linr"  time="0/1" value="0" leadInLength="0/1"  name="textDropShadow"/>
             <InterpolatingParam id="1470" interp="linr"  time="0/1" value="0" leadInLength="0/1"  name="textIgnoresOpacity"/>
             <InterpolatingParam id="1471" interp="linr"  time="0/1" value="0.86784140969162993" leadInLength="0/1"  name="textRectHeight"/>
             <InterpolatingParam id="1472" interp="linr"  time="0/1" value="0.90196078431372551" leadInLength="0/1"  name="textRectWidth"/>
             <InterpolatingParam id="1473" interp="linr"  time="0/1" value="0.049019607843137254" leadInLength="0/1"  name="textRectX"/>
             <InterpolatingParam id="1474" interp="linr"  time="0/1" value="0.066079295154185022" leadInLength="0/1"  name="textRectY"/>
             <InterpolatingParam id="1475" interp="linr"  time="0/1" value="0" leadInLength="0/1"  name="textVerticalAlign"/>
             <InterpolatingParam id="1476" interp="linr"  time="0/1" value="306" leadInLength="0/1"  name="width"/>
            </DoubleParameters>
            <StringParameters>
             <Parameter id="1477"  name="VectorPath">
              <Keyframes>
              <Keyframe id="1478"  time="0/1" value="M10,0h286c5.521,0,10,4.477,10,10v207c0,5.521-4.479,10-10,10H10c-5.523,0-10-4.479-10-10V10&#xa;&#x9;C0,4.477,4.477,0,10,0z" leadInLength="0/1"  />
              </Keyframes>
             </Parameter>
             <Parameter id="1479"  name="filename">
              <Keyframes>
              <Keyframe id="1480"  time="0/1" value="C:\Program Files (x86)\Camtasia Studio 8\Media\Studio\Callouts\roundedrectangle.xml" leadInLength="0/1"  />
              </Keyframes>
             </Parameter>
             <Parameter id="1481"  name="name">
              <Keyframes>
              <Keyframe id="1482"  time="0/1" value="Filled Rounded Rectangle" leadInLength="0/1"  />
              </Keyframes>
             </Parameter>
             <Parameter id="1483"  name="text">
              <Keyframes>
              <Keyframe id="1484"  time="0/1" value="{\rtf1\ansi\ansicpg1252\deff0\deflang1033{\fonttbl{\f0\fswiss\fprq2\fcharset0 Arial;}}&#xD;&#xa;{\colortbl ;\red255\green255\blue255;}&#xD;&#xa;\viewkind4\uc1\pard\qc\cf1\f0\fs144 Materialist\fs32\par&#xD;&#xa;\fs72 Lewis Jones\par&#xD;&#xa;\par&#xD;&#xa;\fs36 Gamers To Engineers Project\par&#xD;&#xa;http://divf.eng.cam.ac.uk/gam2eng/Main/WebHome\fs96\par&#xD;&#xa;}&#xD;&#xa;" leadInLength="0/1"  />
              </Keyframes>
             </Parameter>
             <Parameter id="1485"  name="xmlContent">
              <Keyframes>
              <Keyframe id="1486"  time="0/1" value="﻿&lt;?xml version=&quot;1.0&quot;?&gt;&#xa;&#xa;&lt;Overlay version=&quot;1.0.1&quot;&gt;&#xa;&#xa;&lt;Overlay_Filename&gt;roundedrectangle.png&lt;/Overlay_Filename&gt;&#xa;&lt;Overlay_Name&gt;Filled Rounded Rectangle&lt;/Overlay_Name&gt;&#xa;&lt;Text_Top&gt;15&lt;/Text_Top&gt;&#xa;&lt;Text_Left&gt;15&lt;/Text_Left&gt;&#xa;&lt;Text_Bottom&gt;15&lt;/Text_Bottom&gt;&#xa;&lt;Text_Right&gt;15&lt;/Text_Right&gt;&#xa;&lt;Fill_Color&gt;1&lt;/Fill_Color&gt;&#xa;&lt;Border_Color&gt;1&lt;/Border_Color&gt;&#xa;&lt;Initial_Fill_Color&gt;0xffe05f00&lt;/Initial_Fill_Color&gt;&#xa;&lt;Initial_Border_Color&gt;0xffd7d7d7&lt;/Initial_Border_Color&gt;&#xa;&lt;VectorProps&gt;&#xa;&lt;figure&gt;&#xa;&lt;svg&gt;M10,0h286c5.521,0,10,4.477,10,10v207c0,5.521-4.479,10-10,10H10c-5.523,0-10-4.479-10-10V10&#xa;&#x9;C0,4.477,4.477,0,10,0z&lt;/svg&gt;&#xa;&lt;/figure&gt;&#xa;&lt;borderWidth&gt;5.00&lt;/borderWidth&gt;&#xa;&lt;seamY&gt;-1&lt;/seamY&gt;&#xa;&lt;roundedRectRadius&gt;30&lt;/roundedRectRadius&gt;&#xa;&lt;shapeWidth&gt;306&lt;/shapeWidth&gt;&#xa;&lt;shapeHeight&gt;227&lt;/shapeHeight&gt;&#xa;&lt;/VectorProps&gt;&#xa;&lt;Style&gt;5&lt;/Style&gt;&#xa;&lt;/Overlay&gt;" leadInLength="0/1"  />
              </Keyframes>
             </Parameter>
            </StringParameters>
           </VectorNode>
          </Attribute>
         </Attributes>
         <MetaData>
          <entry key="WinSubProjectDisplayName" val=""/>
         </MetaData>
         <LeftEdgeMods length="0/1" groupName="OpacityFade">
          <EdgeMod parameter="1443">
           <FadeInFunc id="1487"  />
          </EdgeMod>
         </LeftEdgeMods>
         <RightEdgeMods length="15/1" groupName="OpacityFade">
          <EdgeMod parameter="1443">
           <FadeOutFunc id="1488"  />
          </EdgeMod>
         </RightEdgeMods>
         <ExtraData>
          <Entry key="ZoomPanBin">
           <ZoomPanBin id="1489"  >
            <ZoomPanKeyframes>
             <ZoomPanKeyframe id="1490" timeRangeEnd="-9999999/1" timeRangeDuration="0/1" interpolaterName="linr"  />
            </ZoomPanKeyframes>
           </ZoomPanBin>
          </Entry>
         </ExtraData>
        </Callout>
        <Callout id="1491" start="2340" duration="210" scalar="1/1" mediaStart="135/1" mediaDuration="210/1" >
         <Transformer>
          <VectorParam id="1492"  name="translation">
           <InterpolatingParam id="1493" interp="linr"  time="-9999999/1" value="-5.3887561080045998e-011" leadInLength="0/1"  />
           <InterpolatingParam id="1494" interp="linr"  time="-9999999/1" value="7.6795458880951628e-011" leadInLength="0/1"  />
           <InterpolatingParam id="1495" interp="linr"  time="-9999999/1" value="0" leadInLength="0/1"  />
          </VectorParam>
          <VectorParam id="1496"  name="rotation">
           <InterpolatingParam id="1497" interp="linr"  time="-9999999/1" value="0" leadInLength="0/1"  />
           <InterpolatingParam id="1498" interp="linr"  time="-9999999/1" value="0" leadInLength="0/1"  />
           <InterpolatingParam id="1499" interp="linr"  time="-9999999/1" value="0" leadInLength="0/1"  />
          </VectorParam>
          <VectorParam id="1500"  name="shear">
           <InterpolatingParam id="1501" interp="linr"  time="-9999999/1" value="0" leadInLength="0/1"  />
           <InterpolatingParam id="1502" interp="linr"  time="-9999999/1" value="0" leadInLength="0/1"  />
           <InterpolatingParam id="1503" interp="linr"  time="-9999999/1" value="0" leadInLength="0/1"  />
          </VectorParam>
          <VectorParam id="1504"  name="scale">
           <InterpolatingParam id="1505" interp="linr"  time="-9999999/1" value="4.183006535947654" leadInLength="0/1"  />
           <InterpolatingParam id="1506" interp="linr"  time="-9999999/1" value="3.1718061674007987" leadInLength="0/1"  />
           <InterpolatingParam id="1507" interp="linr"  time="-9999999/1" value="1" leadInLength="0/1"  />
          </VectorParam>
          <VectorParam id="1508"  name="anchor">
           <InterpolatingParam id="1509" interp="linr"  time="0/1" value="0" leadInLength="0/1"  />
           <InterpolatingParam id="1510" interp="linr"  time="0/1" value="0" leadInLength="0/1"  />
           <InterpolatingParam id="1511" interp="linr"  time="0/1" value="0" leadInLength="0/1"  />
          </VectorParam>
         </Transformer>
         <Parameters>
          <VectorParam id="1512"  name="sourceCrop">
           <InterpolatingParam id="1513" interp="linr"  time="0/1" value="0" leadInLength="0/1"  />
           <InterpolatingParam id="1514" interp="linr"  time="0/1" value="0" leadInLength="0/1"  />
           <InterpolatingParam id="1515" interp="linr"  time="0/1" value="0" leadInLength="0/1"  />
           <InterpolatingParam id="1516" interp="linr"  time="0/1" value="0" leadInLength="0/1"  />
          </VectorParam>
          <VectorParam id="1517"  name="geometryCrop">
           <InterpolatingParam id="1518" interp="linr"  time="-9999999/1" value="0" leadInLength="0/1"  />
           <InterpolatingParam id="1519" interp="linr"  time="-9999999/1" value="0" leadInLength="0/1"  />
           <InterpolatingParam id="1520" interp="linr"  time="-9999999/1" value="0" leadInLength="0/1"  />
           <InterpolatingParam id="1521" interp="linr"  time="-9999999/1" value="0" leadInLength="0/1"  />
          </VectorParam>
          <InterpolatingParam id="1522" interp="linr"  time="-9999999/1" value="1" leadInLength="0/1"  name="opacity"/>
         </Parameters>
         <Effects>
          <GenericEffect id="1523" name = "DropShadow" >
           <Parameters>
           <InterpolatingParam id="1524" interp="linr"  time="0/1" value="315" leadInLength="0/1"   name="angle"/>
           <InterpolatingParam id="1525" interp="linr"  time="0/1" value="2" leadInLength="0/1"   name="blur"/>
           <Parameter id="1526"   name="enabled">
            <Keyframes>
            <Keyframe id="1527"  time="0/1" value="1" leadInLength="0/1"  />
            </Keyframes>
           </Parameter>
           <InterpolatingParam id="1528" interp="linr"  time="0/1" value="4" leadInLength="0/1"   name="offset"/>
           <InterpolatingParam id="1529" interp="linr"  time="0/1" value="0.75" leadInLength="0/1"   name="opacity"/>
           </Parameters>
          </GenericEffect>
         </Effects>
         <Attributes>
          <Attribute id="1530"  name="vectorNode">
           <VectorNode id="1531" kind="TypeWinXML"  >
            <DoubleParameters>
             <InterpolatingParam id="1532" interp="linr"  time="0/1" value="-1" leadInLength="0/1"  name="CutoutPercentage"/>
             <InterpolatingParam id="1533" interp="linr"  time="0/1" value="30" leadInLength="0/1"  name="RoundedRectRadius"/>
             <InterpolatingParam id="1534" interp="linr"  time="0/1" value="5" leadInLength="0/1"  name="Style"/>
             <InterpolatingParam id="1535" interp="linr"  time="0/1" value="215" leadInLength="0/1"  name="borderColorBlue"/>
             <InterpolatingParam id="1536" interp="linr"  time="0/1" value="215" leadInLength="0/1"  name="borderColorGreen"/>
             <InterpolatingParam id="1537" interp="linr"  time="0/1" value="215" leadInLength="0/1"  name="borderColorRed"/>
             <InterpolatingParam id="1538" interp="linr"  time="0/1" value="0" leadInLength="0/1"  name="borderState"/>
             <InterpolatingParam id="1539" interp="linr"  time="0/1" value="5" leadInLength="0/1"  name="borderWidth"/>
             <InterpolatingParam id="1540" interp="linr"  time="0/1" value="0" leadInLength="0/1"  name="dimensionTime"/>
             <InterpolatingParam id="1541" interp="linr"  time="0/1" value="224" leadInLength="0/1"  name="fillColorBlue"/>
             <InterpolatingParam id="1542" interp="linr"  time="0/1" value="95" leadInLength="0/1"  name="fillColorGreen"/>
             <InterpolatingParam id="1543" interp="linr"  time="0/1" value="0" leadInLength="0/1"  name="fillColorRed"/>
             <InterpolatingParam id="1544" interp="linr"  time="0/1" value="0" leadInLength="0/1"  name="fillState"/>
             <InterpolatingParam id="1545" interp="linr"  time="0/1" value="0" leadInLength="0/1"  name="flipOnXAxis"/>
             <InterpolatingParam id="1546" interp="linr"  time="0/1" value="0" leadInLength="0/1"  name="flipOnYAxis"/>
             <InterpolatingParam id="1547" interp="linr"  time="0/1" value="227" leadInLength="0/1"  name="height"/>
             <InterpolatingParam id="1548" interp="linr"  time="0/1" value="0" leadInLength="0/1"  name="textDropShadow"/>
             <InterpolatingParam id="1549" interp="linr"  time="0/1" value="0" leadInLength="0/1"  name="textIgnoresOpacity"/>
             <InterpolatingParam id="1550" interp="linr"  time="0/1" value="0.86784140969162993" leadInLength="0/1"  name="textRectHeight"/>
             <InterpolatingParam id="1551" interp="linr"  time="0/1" value="0.90196078431372551" leadInLength="0/1"  name="textRectWidth"/>
             <InterpolatingParam id="1552" interp="linr"  time="0/1" value="0.049019607843137254" leadInLength="0/1"  name="textRectX"/>
             <InterpolatingParam id="1553" interp="linr"  time="0/1" value="0.066079295154185022" leadInLength="0/1"  name="textRectY"/>
             <InterpolatingParam id="1554" interp="linr"  time="0/1" value="0" leadInLength="0/1"  name="textVerticalAlign"/>
             <InterpolatingParam id="1555" interp="linr"  time="0/1" value="306" leadInLength="0/1"  name="width"/>
            </DoubleParameters>
            <StringParameters>
             <Parameter id="1556"  name="VectorPath">
              <Keyframes>
              <Keyframe id="1557"  time="0/1" value="M10,0h286c5.521,0,10,4.477,10,10v207c0,5.521-4.479,10-10,10H10c-5.523,0-10-4.479-10-10V10&#xa;&#x9;C0,4.477,4.477,0,10,0z" leadInLength="0/1"  />
              </Keyframes>
             </Parameter>
             <Parameter id="1558"  name="filename">
              <Keyframes>
              <Keyframe id="1559"  time="0/1" value="C:\Program Files (x86)\Camtasia Studio 8\Media\Studio\Callouts\roundedrectangle.xml" leadInLength="0/1"  />
              </Keyframes>
             </Parameter>
             <Parameter id="1560"  name="name">
              <Keyframes>
              <Keyframe id="1561"  time="0/1" value="Filled Rounded Rectangle" leadInLength="0/1"  />
              </Keyframes>
             </Parameter>
             <Parameter id="1562"  name="text">
              <Keyframes>
              <Keyframe id="1563"  time="0/1" value="{\rtf1\ansi\ansicpg1252\deff0\deflang1033{\fonttbl{\f0\fswiss\fprq2\fcharset0 Arial;}}&#xD;&#xa;{\colortbl ;\red255\green255\blue255;}&#xD;&#xa;\viewkind4\uc1\pard\qc\cf1\f0\fs144 Materialist\fs32\par&#xD;&#xa;\fs72 Lewis Jones\par&#xD;&#xa;\par&#xD;&#xa;\fs36 Gamers To Engineers Project\par&#xD;&#xa;http://divf.eng.cam.ac.uk/gam2eng/Main/WebHome\fs144\par&#xD;&#xa;}&#xD;&#xa;" leadInLength="0/1"  />
              </Keyframes>
             </Parameter>
             <Parameter id="1564"  name="xmlContent">
              <Keyframes>
              <Keyframe id="1565"  time="0/1" value="﻿&lt;?xml version=&quot;1.0&quot;?&gt;&#xa;&#xa;&lt;Overlay version=&quot;1.0.1&quot;&gt;&#xa;&#xa;&lt;Overlay_Filename&gt;roundedrectangle.png&lt;/Overlay_Filename&gt;&#xa;&lt;Overlay_Name&gt;Filled Rounded Rectangle&lt;/Overlay_Name&gt;&#xa;&lt;Text_Top&gt;15&lt;/Text_Top&gt;&#xa;&lt;Text_Left&gt;15&lt;/Text_Left&gt;&#xa;&lt;Text_Bottom&gt;15&lt;/Text_Bottom&gt;&#xa;&lt;Text_Right&gt;15&lt;/Text_Right&gt;&#xa;&lt;Fill_Color&gt;1&lt;/Fill_Color&gt;&#xa;&lt;Border_Color&gt;1&lt;/Border_Color&gt;&#xa;&lt;Initial_Fill_Color&gt;0xffe05f00&lt;/Initial_Fill_Color&gt;&#xa;&lt;Initial_Border_Color&gt;0xffd7d7d7&lt;/Initial_Border_Color&gt;&#xa;&lt;VectorProps&gt;&#xa;&lt;figure&gt;&#xa;&lt;svg&gt;M10,0h286c5.521,0,10,4.477,10,10v207c0,5.521-4.479,10-10,10H10c-5.523,0-10-4.479-10-10V10&#xa;&#x9;C0,4.477,4.477,0,10,0z&lt;/svg&gt;&#xa;&lt;/figure&gt;&#xa;&lt;borderWidth&gt;5.00&lt;/borderWidth&gt;&#xa;&lt;seamY&gt;-1&lt;/seamY&gt;&#xa;&lt;roundedRectRadius&gt;30&lt;/roundedRectRadius&gt;&#xa;&lt;shapeWidth&gt;306&lt;/shapeWidth&gt;&#xa;&lt;shapeHeight&gt;227&lt;/shapeHeight&gt;&#xa;&lt;/VectorProps&gt;&#xa;&lt;Style&gt;5&lt;/Style&gt;&#xa;&lt;/Overlay&gt;" leadInLength="0/1"  />
              </Keyframes>
             </Parameter>
            </StringParameters>
           </VectorNode>
          </Attribute>
         </Attributes>
         <MetaData>
          <entry key="WinSubProjectDisplayName" val=""/>
         </MetaData>
         <LeftEdgeMods length="15/1" groupName="OpacityFade">
          <EdgeMod parameter="1522">
           <FadeInFunc id="1488"  />
          </EdgeMod>
         </LeftEdgeMods>
         <RightEdgeMods length="0/1" groupName="OpacityFade">
          <EdgeMod parameter="1522">
           <FadeOutFunc id="1566"  />
          </EdgeMod>
         </RightEdgeMods>
         <ExtraData>
          <Entry key="ZoomPanBin">
           <ZoomPanBin id="1567"  >
            <ZoomPanKeyframes>
             <ZoomPanKeyframe id="1568" timeRangeEnd="-9999999/1" timeRangeDuration="0/1" interpolaterName="linr"  />
            </ZoomPanKeyframes>
           </ZoomPanBin>
          </Entry>
         </ExtraData>
        </Callout>
       </Medias>
      </GenericTrack>
      <GenericTrack id="1569"  >
       <Attributes>
        <Attribute id="1570" value="" name="ident"/>
        <Attribute id="1571" value="0" name="audioMuted"/>
        <Attribute id="1572" value="0" name="videoHidden"/>
       </Attributes>
       <MetaData>
        <entry key="IsLocked" val="False"/>
        <entry key="WinTrackHeight" val="56.704545454545439"/>
       </MetaData>
       <Medias>
       </Medias>
      </GenericTrack>
      <GenericTrack id="1573"  >
       <Attributes>
        <Attribute id="1574" value="" name="ident"/>
        <Attribute id="1575" value="0" name="audioMuted"/>
        <Attribute id="1576" value="0" name="videoHidden"/>
       </Attributes>
       <MetaData>
        <entry key="IsLocked" val="False"/>
        <entry key="WinTrackHeight" val="56.704545454545439"/>
       </MetaData>
       <Medias>
       </Medias>
      </GenericTrack>
     </Tracks>
    </GenericMixer>
   <CaptionAttributes id="1577"  >
    <Attribute id="1578" value="1" name="captionsEnabled"/>
    <Attribute id="1579" value="Arial" name="captionsFontName"/>
    <Attribute id="1580" value="28" name="captionsFontSize"/>
    <Attribute id="1581" value="(0,0,0,255)" name="captionsBackgroundColor"/>
    <Attribute id="1582" value="(255,255,255,255)" name="captionsForegroundColor"/>
    <Attribute id="1583" value="en" name="lang"/>
    <Attribute id="1584" value="0" name="captionsAlignment"/>
    <Attribute id="1585" value="1" name="captionsDefaultFontSize"/>
    <Attribute id="1586" value="0.5" name="captionsOpacity"/>
    <Attribute id="1587" value="1" name="captionsBackgroundEnabled"/>
    <Attribute id="1588" value="1" name="captionsBackgroundOnlyAroundText"/>
   </CaptionAttributes>
   <Parameters>
    <VectorParam id="1589"  name="eyePosition">
     <InterpolatingParam id="1590" interp="linr"  time="0/1" value="0" leadInLength="0/1"  />
     <InterpolatingParam id="1591" interp="linr"  time="0/1" value="0" leadInLength="0/1"  />
     <InterpolatingParam id="1592" interp="linr"  time="0/1" value="3000" leadInLength="0/1"  />
    </VectorParam>
    <VectorParam id="1593"  name="eyeLookAtPosition">
     <InterpolatingParam id="1594" interp="linr"  time="0/1" value="0" leadInLength="0/1"  />
     <InterpolatingParam id="1595" interp="linr"  time="0/1" value="0" leadInLength="0/1"  />
     <InterpolatingParam id="1596" interp="linr"  time="0/1" value="0" leadInLength="0/1"  />
    </VectorParam>
    <VectorParam id="1597"  name="eyeUpVector">
     <InterpolatingParam id="1598" interp="linr"  time="0/1" value="0" leadInLength="0/1"  />
     <InterpolatingParam id="1599" interp="linr"  time="0/1" value="1" leadInLength="0/1"  />
     <InterpolatingParam id="1600" interp="linr"  time="0/1" value="0" leadInLength="0/1"  />
    </VectorParam>
    <InterpolatingParam id="1601" interp="linr"  time="0/1" value="0.23885785" leadInLength="0/1"  name="fov"/>
    <InterpolatingParam id="1602" interp="linr"  time="0/1" value="1.5" leadInLength="0/1"  name="nearClipDistance"/>
    <InterpolatingParam id="1603" interp="linr"  time="0/1" value="6000" leadInLength="0/1"  name="farClipDistance"/>
   </Parameters>
  </Timeline>
 </Project>
</GoProject>
</CSMLData>

</Project_Data>
